<?xml version="1.0" encoding="UTF-8"?>
<svg id="Layer_1" data-name="Layer 1" xmlns="http://www.w3.org/2000/svg" version="1.1" viewBox="0 0 500 500">
  <defs>
    <style>
      .cls-1, .cls-2 {
        fill: #37423e;
        stroke-width: 0px;
      }

      .cls-2 {
        opacity: .25;
      }
    </style>
  </defs>
  <circle class="cls-2" cx="250" cy="142.41" r="86.75"/>
  <g>
    <g>
      <path class="cls-1" d="M268.73,154.54c-.38,0-.77-.15-1.06-.44-.59-.58-.59-1.53,0-2.12l27.62-27.62c.55-.55.85-1.28.84-2.06,0-.78-.32-1.5-.87-2.04l-16.41-15.91c-.54-.52-1.25-.81-2-.81-.02,0-.03,0-.05,0-.77.01-1.49.32-2.02.87l-16.83,17.37c-.58.59-1.52.61-2.12.03-.59-.58-.61-1.52-.03-2.12l16.83-17.37c1.09-1.13,2.56-1.76,4.13-1.79,1.57-.02,3.05.56,4.18,1.66l16.41,15.91c1.14,1.1,1.77,2.59,1.78,4.17s-.6,3.08-1.72,4.2l-27.62,27.62c-.29.29-.68.44-1.06.44Z"/>
      <path class="cls-1" d="M232.75,188.72s-.06,0-.1,0c-1.6-.03-3.09-.68-4.19-1.86l-14.73-15.72c-2.15-2.29-2.12-5.85.07-8.1l9.67-9.98c.58-.59,1.52-.61,2.12-.03s.61,1.52.03,2.12l-9.67,9.98c-1.07,1.1-1.08,2.85-.03,3.97l14.73,15.72c.54.57,1.27.9,2.05.91.78.01,1.52-.29,2.08-.84l17.41-17.41c.59-.59,1.53-.58,2.12,0,.59.58.59,1.53,0,2.12l-17.41,17.41c-1.11,1.11-2.58,1.72-4.15,1.72Z"/>
      <path class="cls-1" d="M294.8,118.52c-.73,0-1.36-.53-1.48-1.27-.38-2.47.08-4.63,1.39-6.4,2.12-2.88,5.78-3.73,6.66-3.89,5.8-2.33,8.09-5.45,6.81-9.27-1.18-3.52-4.64-5.86-8.42-5.68-5.33.26-6.25,5.64-6.29,5.87,0,.03-.01.06-.02.09-1.48,6.83-7.53,8.87-10.51,9-.83.04-1.53-.61-1.56-1.43-.04-.83.6-1.52,1.43-1.56.28-.01,6.34-.41,7.71-6.6.44-2.79,2.9-8.06,9.1-8.35,5.11-.26,9.8,2.93,11.4,7.72,2.47,7.39-4.39,11.36-8.69,13.06-.11.04-.22.07-.33.09-.67.11-6.61,1.2-5.72,6.9.13.82-.43,1.58-1.25,1.71-.08.01-.15.02-.23.02Z"/>
      <path class="cls-1" d="M209.81,199.21s-.07,0-.1,0c-5.12-.05-9.62-3.49-10.94-8.36-2.04-7.52,5.03-11.09,9.43-12.54.11-.04.22-.06.33-.07.68-.07,6.66-.82,6.11-6.57-.08-.82.52-1.56,1.35-1.64.82-.08,1.56.52,1.64,1.35.24,2.49-.35,4.61-1.75,6.31-2.28,2.75-5.98,3.39-6.87,3.51-5.92,1.99-8.39,4.98-7.33,8.87.97,3.59,4.3,6.11,8.08,6.15.02,0,.05,0,.07,0,5.27,0,6.49-5.27,6.54-5.5,0-.03.01-.06.02-.09,1.85-6.65,7.87-8.38,10.9-8.38.04,0,.08,0,.11,0,.83.01,1.49.69,1.48,1.52-.01.82-.68,1.48-1.5,1.48h-.03c-.38,0-6.36.1-8.07,6.15-.6,2.74-3.32,7.82-9.46,7.82Z"/>
    </g>
    <g>
      <g>
        <path class="cls-1" d="M290.11,200.87c-.19,0-.39,0-.58-.02-4.06-.32-7.05-4.02-7.18-4.17l-29.36-35.69,1.53-.89c3.12-1.81,7.38-6.19,7.42-6.23l1.05-1.08,33.88,33.2c1.75,1.93,2.53,4.02,2.32,6.2-.36,3.63-3.43,6.17-3.94,6.56-1.57,1.41-3.3,2.12-5.14,2.12ZM257.49,161.73l27.18,33.05s2.34,2.86,5.1,3.07c1.23.1,2.38-.35,3.51-1.37l.11-.09s2.57-1.96,2.81-4.51c.12-1.31-.38-2.57-1.53-3.85l-31.65-31.02c-1.26,1.22-3.43,3.23-5.53,4.72Z"/>
        <path class="cls-1" d="M254.71,162.78l-18.42-7.4c-.75-.3-1.49-.63-2.22-.98-17.22-8.34-30.44-18.11-38.25-28.27-2.65-3.45-4.33-7.47-4.85-11.62-1.8-14.29,9.85-23.24,10.56-23.77.34-.26,4.26-3.24,10.12-4.66,5.58-1.35,14.03-1.49,22.55,5.53,2.4,1.98,4.56,4.35,6.42,7.06,4.07,5.92,14.16,22,20.07,43.45l3.77,12.36-2.87.87-3.79-12.42c-5.79-21.01-15.67-36.77-19.66-42.57-1.7-2.47-3.67-4.64-5.85-6.44-6.04-4.98-12.71-6.65-19.83-4.96-5.4,1.28-9.06,4.11-9.1,4.14l-.03.03c-.11.08-10.99,8.35-9.39,21,.46,3.63,1.93,7.14,4.26,10.17,7.52,9.79,20.38,19.26,37.18,27.4.67.32,1.35.63,2.04.9l18.42,7.4-1.12,2.78Z"/>
        <path class="cls-1" d="M259.17,160c-.41,0-.83-.17-1.12-.5l-58.02-65.5c-.33-.37-.45-.89-.33-1.37s.48-.87.95-1.04c7.35-2.61,15.22-.69,23.4,5.73,6.33,4.96,12.89,12.65,19.48,22.84,11.15,17.23,18.72,36.02,18.79,36.21.31.77-.07,1.64-.83,1.95-.27.11-.56.13-.82.08.03.45-.14.9-.5,1.22-.29.25-.64.38-.99.38ZM203.86,93.81l55.04,62.14c-2.03-4.81-8.75-20.04-17.9-34.18-9.42-14.55-23.31-30.78-37.14-27.95Z"/>
        <path class="cls-1" d="M257.3,161.51c-.2,0-.41-.04-.61-.13-.17-.08-17.27-7.71-32.72-19.81-9.14-7.16-15.94-14.46-20.21-21.72-5.45-9.24-6.81-18.43-4.05-27.29.25-.79,1.09-1.23,1.88-.98.79.25,1.23,1.09.98,1.88-2.5,8.01-1.23,16.38,3.76,24.85,4.08,6.93,10.62,13.95,19.45,20.87,15.16,11.88,31.96,19.39,32.13,19.47.76.34,1.1,1.22.76,1.98-.25.56-.8.89-1.37.89Z"/>
      </g>
      <path class="cls-1" d="M289.87,195.61c-.07,0-.13,0-.2,0-1.05-.05-2.02-.51-2.73-1.29-.71-.78-1.07-1.79-1.02-2.84s.51-2.02,1.29-2.73c.78-.71,1.79-1.07,2.84-1.02,1.05.05,2.02.51,2.73,1.29.71.78,1.07,1.79,1.02,2.84h0c-.05,1.05-.51,2.02-1.29,2.73-.73.66-1.66,1.02-2.64,1.02ZM289.87,190.72c-.24,0-.46.09-.63.25-.19.17-.3.4-.31.65-.01.25.07.49.24.68.17.19.4.3.65.31.25,0,.49-.07.68-.24.19-.17.3-.4.31-.66.03-.52-.38-.97-.9-.99-.02,0-.03,0-.05,0ZM292.31,191.79h0,0Z"/>
    </g>
  </g>
  <g>
    <path class="cls-1" d="M247.37,403.11c-1.01,2.49-2.74,3.36-4.82,3.71-2.89.48-5.78.97-8.67,1.4-1.51.22-2.29,1.01-2.43,2.52-.73,7.68-1.24,15.37-.41,23.07.19,1.76.77,3.51.74,5.26-.07,3.77-1.61,5.26-5.27,4.89-1.29-.13-2.66-1.22-3.66-2.21-2.48-2.45-2.56-5.76-2.93-8.98-.68-5.93-.96-11.85-.21-17.79.09-.71.04-1.51.36-2.11,1.08-2.04-.09-2.35-1.64-2.12-2.02.3-4.08.64-5.99,1.32-2.86,1.02-9.89-1.27-9.85-4.65.03-2.23.57-3.18,2.97-3.64,4.83-.91,9.67-1.8,14.5-2.75.58-.11,1.49-.46,1.58-.85,1.01-4.35,1.89-8.74,2.9-13.58-1.53.31-2.42.46-3.3.68-5.11,1.27-10.17,2.76-15.32,3.77-3.78.75-7.7,1.29-11.54,1.15-2.9-.1-5.95-1.17-7.78-3.82-.62-.9-.84-2.35-.64-3.45.1-.55,1.49-1.1,2.36-1.24,1.18-.18,2.45.23,3.63.04,4.14-.69,8.26-1.51,12.39-2.3,3.16-.61,6.33-1.19,9.46-1.93,3.9-.92,7.78-1.91,11.61-3.09.87-.27,1.66-1.33,2.16-2.21,1.13-1.97,3.52-2.97,5.53-1.85,1.67.92,3.23,2.08,4.67,3.34.46.4.63,1.51.48,2.19-.96,4.25-2.08,8.46-3.07,12.71-.55,2.36-1.03,4.74-1.41,7.13-.21,1.32.44,1.89,1.88,1.87,2.29-.03,4.6.07,6.87.37,1.42.19,2.78.85,4.35,1.35,0,.01.21-.47.08-.83-1.35-3.56-1.46-7.31-.51-10.82.87-3.24,2.89-6.16,5.68-8.24,3.51-2.62,7.15-5.06,10.79-7.49.53-.36,1.39-.23,2.09-.34,1.7-.27,3.44-.38,5.08-.85,2.7-.78,10.34,1.83,11.87,4.17.47.72,1.15,1.29,1.6,2.02.54.86.85,1.86,1.39,2.72.61.97,1.17,2.27,2.09,2.69,2.98,1.37,3.8,3.12,2.75,6.27-1.11,3.35-4.06,5.03-6.33,7.31-4.28,4.3-8.69,8.47-12.97,12.78-.89.9-1.11,1.84.26,3.04,3.89,3.43,7.76,6.94,11.16,10.83,2.25,2.57,3.97,5.74,5.34,8.89.9,2.06.1,4.46-1.7,6.07-2.53,2.26-5.23,4.16-8.98,3.63-2.63-.37-5.39-.06-7.93-.69-3.86-.95-7.33-3-9.79-6.17-5.15-6.65-6.93-13.99-3.63-22.08.85-2.1-.77-3.2-1.74-4.52-1.39-1.87-2.91-3.64-4.43-5.41-.38-.44-.96-.7-1.66-1.19ZM275,381.95c-2.1.45-3.95.38-5.24,1.21-3.45,2.21-6.75,4.69-9.93,7.28-4.03,3.27-4.43,8.19-1.07,12.08.4.47,1.57.66,2.2.44.73-.25,1.28-1.08,1.88-1.68,4.56-4.51,9-9.15,13.76-13.45,1.43-1.29,1.41-2.57.96-3.72-.37-.95-1.75-1.52-2.56-2.16ZM265.51,420.56c-.3.06-.6.12-.9.18-.31,1.12-.76,2.22-.91,3.36-.3,2.38.25,4.56,1.55,6.66.78,1.27,3.91,3.89,5.44,3.91,2.47.04,4.31-1.11,5.98-2.95-3.79-3.78-7.48-7.47-11.17-11.15Z"/>
    <path class="cls-1" d="M48.72,347.86c-2.6-.21-6.75,0-10.6-.96-7.42-1.86-14.59-4.57-19.32-11.17-1.27-1.77-2.12-3.83-3.19-5.74-.41-.73-.91-1.41-1.33-2.14-2.04-3.56-1.88-7.49-1.53-11.32.32-3.47,1.16-6.9,1.95-10.3.18-.78,1.09-1.41,1.69-2.08,1.05-1.18,2.12-2.34,3.2-3.49.44-.47.93-.91,1.39-1.36.3.51.8,1,.85,1.54.28,2.67.76,5.37.57,8.02-.27,3.69-1.3,7.32-1.61,11.01-.52,6.27,3.24,10.45,7.68,14.04,6.08,4.92,13.34,6.61,20.92,6.07,3.52-.25,7.21-.29,10.66-2,3.41-1.7,7.28-2.47,10.85-3.88,1.25-.49,2.31-1.61,3.3-2.59,2.91-2.9,6.28-5.54,8.46-8.93,2.44-3.79,3.83-8.46,2.29-12.99-1.02-3.01-3.54-5.39-6.5-6.78-4.14-1.95-8.32-3.84-13.07-3.96-2.04-.05-4.05-.82-6.09-1.04-2.5-.26-3.05.27-3.29,2.8-.64,6.63-1.18,13.27-1.9,19.89-.42,3.84-1.03,7.66-1.69,11.47-.5,2.93-1.85,4.08-3.99,3.74-3.57-.57-5.11-2.26-4.75-5.24.75-6.08,1.5-12.16,2.27-18.23.49-3.84.97-7.68,1.55-11.5.21-1.38-.25-1.91-1.56-1.83-.71.04-1.42.11-2.13.21-3.23.45-5.79-1.25-6.67-4.37-.36-1.27-.2-1.91,1.34-2.23,2.93-.59,5.78-1.56,8.68-2.26,1.42-.34,1.97-1.23,2.22-2.54.52-2.68,1.14-5.34,1.61-8.02.45-2.52.62-5.09,1.19-7.58.42-1.81,1.06-3.66,2.07-5.2.44-.67,2.06-.93,3.07-.8,1.74.22,3.42,2.52,3.28,4.29-.18,2.4-.58,4.78-.86,7.18-.13,1.07-.33,2.15-.27,3.21.07,1.12.88,1.38,1.62.58,2.53-2.74,5.58-5.06,7.03-8.71.34-.85,1.41-1.4,1.8-2.25,1.12-2.46,2.26-4.95,3.01-7.54.85-2.93,1.38-5.96,1.9-8.97.3-1.76-.53-2.9-2.43-3.09-3.59-.35-7.15-.43-10.57,1.08-3.19,1.4-6.56,2.49-9.57,4.21-3.98,2.26-7.82,4.84-11.5,7.57-4.4,3.27-8.5,6.96-12.9,10.23-.94.7-2.97.95-3.9.4-1.42-.84-1.05-2.66-.34-4.11,1.22-2.51,2.7-4.77,4.99-6.55,3.46-2.69,6.57-5.81,10.08-8.43,2.36-1.77,5.09-3.06,7.73-4.42,3.33-1.71,6.6-3.69,10.14-4.78,3.98-1.22,8.2-1.77,12.36-2.25,2.32-.27,4.73.18,7.09.37,3.08.24,7.42,4.03,8.01,7.68.86,5.33.04,10.29-1.72,15.3-1.74,4.97-4.13,9.6-7.31,13.69-2.32,2.98-5.43,5.33-8.14,8.01-.68.67-1.17,1.53-1.75,2.3.81.36,1.59.94,2.43,1.04,7.32.83,14.12,3.28,20.05,7.5,4.8,3.42,7.9,8.23,7.77,14.53,0,.43-.09.89.02,1.29.83,3.19-.3,6.08-1.86,8.61-2.23,3.61-4.68,7.19-7.59,10.26-3.52,3.71-7.83,6.35-12.67,8.41-4.65,1.98-9.32,3.66-14.24,4.54-2.88.51-5.88.38-10.26.61Z"/>
    <path class="cls-1" d="M172.01,296.95c.76-.35,1.49-.51,1.95-.94,3.77-3.59,7.4-7.35,11.27-10.83,2.29-2.06,4.69-4.17,8.18-4.08,1.52.04,3.13,0,3.62,1.62.52,1.7.74,3.86-.93,5.01-4.5,3.09-7.77,7.42-11.7,11.08-3.69,3.44-7.66,6.58-11.51,9.86-.75.64-1.58,1.21-2.24,1.95-1.33,1.5-.62,3.69,1.34,4.52,4.26,1.79,8.51,3.58,12.74,5.45,1.87.82,3.54.96,5.24-.4,2.38-1.9,3.46-1.82,5.71.58.05-.97.09-1.6.12-2.23.18-4.37-.28-8.89.71-13.06,1.33-5.62,2.48-11.44,5.92-16.39,2.01-2.89,3.65-6.05,5.79-8.83.96-1.25,2.63-2.3,4.16-2.69,5.78-1.46,11.31-.75,15.78,3.5,1.95,1.85,4,3.91,4.05,7.03.01.99.23,2.01.51,2.97,1.05,3.76-1.76,9.99-5.09,12.49-3.26,2.45-7.16,3-10.46,5.01-2.82,1.72-5.93,1.88-9.06,2.18-.63.06-1.64.84-1.7,1.37-.62,5.92-.12,11.55,5.01,15.62,2.81,2.23,6.14,3.02,9.63,2.87,2.49-.11,4.98-.56,7.44-1.07,1.58-.32,3.13-.9,4.61-1.55,2.17-.95,4.29-.64,4.87,1.03.2.58.1,1.57-.29,2.01-1.4,1.63-1.46,1.58-.49,3.92-1.52.61-2.99,1.38-4.56,1.78-3.5.9-7.02,1.77-10.58,2.35-1.47.24-3.07-.47-4.61-.45-4.97.05-9.06-2.21-13.12-4.7-3.49-2.14-5.23-5.5-6.79-9.05-.21-.48-.61-.88-1.12-1.59.25,4.6-3.6,7.35-7.81,6.73-5.03-.75-9.21-3.3-13.68-5.3-1.28-.57-2.52-1.24-3.83-1.73-1.25-.46-2.21-.3-2.44,1.38-.45,3.41-.91,6.82-1.58,10.19-.6,3-2.81,4.62-5.62,4.49-1.4-.07-4.77-3.9-4.64-5.66.24-3.26.76-6.51,1.14-9.76.13-1.07.18-2.15.31-3.23.16-1.35-.02-2.33-1.31-3.31-2.25-1.7-1.29-6.23,1.41-8.41.73-.59,1.47-1.65,1.53-2.54.69-10.04,1.26-20.08,1.85-30.13,0-.14-.04-.3,0-.43.43-1.18-1.49-2.78.45-3.61,2.55-1.09,6.57-.1,7.89,1.6,3,3.86,1.98,8.3,1.93,12.61-.04,3.49,0,6.99,0,10.79ZM219.35,285.25c-2.57,1.13-3.82,3.36-5.09,5.62-1.42,2.52-3.08,4.92-4.37,7.5-.45.9-.12,2.19-.14,3.31,1.07-.23,2.17-.37,3.2-.71,2.71-.9,5.01-2.48,7.28-4.22,1.95-1.5,3.04-3.37,3.32-5.58.38-3.03-.87-4.49-4.2-5.92Z"/>
    <path class="cls-1" d="M396.35,324.4c1.92-.3,3.67-.54,5.39-.86,1.4-.27,1.55-1.49.86-3.03-1.27-2.83-2.46-5.75-1.56-8.97.16-.58.6-1.43,1.01-1.49.47-.07,1.04.63,1.61.91.48.23,1.18.19,1.51.54.86.9,1.86,1.83,2.29,2.95,1.24,3.26,3.78,5.2,6.48,7.07,2.22,1.54,4.32.18,6.31-.45.45-.14.67-2.52.28-3.62-2.03-5.71-5.46-10.74-8.25-16.08-2.8-5.36-4.8-11.06-1.84-17.21.88-1.83,2.14-2.79,4.03-3.45,5.09-1.79,9.72.42,14.42,1.58.92.23,1.62,2.11,2.04,3.36.3.89-.05,1.99-.12,3.19-2.38.02-4.72.24-7.02-.01-1.92-.21-3.83.27-4.5,1.65-.6,1.23-.21,3.34.46,4.71,2.38,4.82,5.2,9.42,7.6,14.23,1.84,3.68,3.45,7.48,4.87,11.34,1.06,2.87-1.05,7.27-3.99,9.24-2.35,1.56-4.86,2.21-7.7,1.73-1.46-.25-2.99-.1-4.48-.19-3.05-.18-5.47-1.7-7.72-3.62-.86-.73-1.5-.58-1.9.6-.58,1.68-3.8,3.56-5.64,3.45-.41-.03-1.11-.07-1.2.11-.99,2.06-2.81,1.76-4.48,1.55-2.27-.28-4.18-1.4-5.61-3.21-1.64-2.07-3.42-4.07-4.75-6.33-.86-1.47-1.02-3.34-1.64-5.59-1.6,2.82-2.78,5.23-4.28,7.42-1.22,1.79-2.6,3.59-4.29,4.9-2.83,2.19-5.51,4.58-9.29,5.43-3.44.78-6.38.16-9.16-1.62-4.24-2.72-6.9-6.81-8.47-11.44-1.67-4.93-1.56-10.12-1.05-15.28.82-8.26,3.13-16.17,5.59-24.05.16-.52.75-1.25,1.18-1.28,2.42-.18,5.03-.45,6.67,1.86,1.25,1.76,1.82,3.79,1.11,6.04-.5,1.57-.85,3.19-1.14,4.81-1.23,6.93-2.96,13.86-2.4,20.91.23,2.86.25,6.15,2.31,8.74.71.89,1,1.15,2.17.46,4.96-2.91,8.89-6.54,10.97-12.15,1.34-3.6,3.66-6.82,5.22-10.35,2.09-4.74,3.92-9.59,5.74-14.43.53-1.4.66-2.95.94-4.43.73-3.91,3.82-4.99,6.91-2.4.38.32.69.88,1.11.98,2.76.64,2.75,2.64,2.57,4.84-.67,8.38-1.52,16.76-1.82,25.16-.14,4.06.97,8.12,2.64,11.79Z"/>
    <path class="cls-1" d="M111.97,301.91c-3.2.53-3.78-2.36-5.1-4.04-.65-.83-.48-2.73-.04-3.92,1.44-3.9,4.12-6.91,7.4-9.43,3.84-2.95,8.12-5.1,12.7-6.48,5.5-1.66,11.15-1.76,16.23,1.33,1.34.81,2.17,2.96,2.57,4.66.48,2.03.78,4,2.19,5.67,1.94,2.29,1.92,5.14,2.14,7.93.54,6.79,1.13,13.57,1.67,20.36.32,4.05.58,8.11.89,12.16.16,2-1.2,2.75-2.71,3.41-1.33.58-2.34.35-3.72-.43-2.98-1.7-3.7-4.28-4.05-7.29-.2-1.74-.66-3.45-1.1-5.6-.65.63-1.22.95-1.44,1.43-2.1,4.6-5.11,8.45-9.08,11.62-3.65,2.92-7.65,5.32-12.3,5.48-3.36.12-6.89-.59-10.11-1.64-3.55-1.16-6.46-3.76-8.2-7.07-3.61-6.87-2.7-13.25,4.33-18.3,1.27-.91,2.89-1.57,4.44-1.83,6.46-1.09,12.68-2.95,17.81-7.05,3.27-2.61,5.97-6.03,7.74-9.97.79-1.75,1.49-3.55,2.11-5.37.74-2.16-.33-3.44-2.53-2.94-2.02.46-4.05.98-5.96,1.77-7.29,3-12.79,7.92-15.8,15.35-.05.13-.13.25-.09.18ZM134.4,310.39c-2.52-.95-3.38,1.03-4.81,1.53-4.99,1.71-10.01,3.36-15.1,4.75-2.5.68-4.65,1.89-5.87,3.96-.9,1.54-2.71,3.23-1.39,5.47,2.63,4.45,8.69,5.58,12.86,2.55,4.54-3.3,8.62-7.02,11.36-11.99,1.1-2,1.95-4.13,2.94-6.26Z"/>
    <path class="cls-1" d="M278.27,303.94c-2.55,1.61-4.59,3.13-6.82,4.25-3.23,1.61-6.52,3.18-9.93,4.32-3.35,1.11-3.75,1.89-3.36,5.37.51,4.51,1.32,9.14-.49,13.58-.52,1.28-1.44,2.41-2.2,3.6-.1.16-.33.27-.53.34-1.3.47-6.11-2.12-6.68-3.36-1.01-2.19-1.16-4.28-.89-6.74.39-3.54-.05-7.19-.35-10.77-.16-1.89-.79-3.73-1.18-5.6-.1-.49-.33-1.1-.14-1.47,2.19-4.2.78-8.71,1.18-13.05.41-4.44.33-8.92.65-13.36.27-3.79.73-7.56,1.28-11.32.1-.66.96-1.58,1.61-1.71,3.65-.73,5.88.27,7.74,3.4.4.67.51,1.61.48,2.42-.35,8.83-.76,17.65-1.15,26.48-.03.65-.03,1.3.06,1.94.21,1.46.75,2.07,2.3,1.11,3.43-2.12,7.06-3.94,10.4-6.19,2.68-1.81,4.4-4.56,6.22-7.28,2.2-3.3,1.7-7.03,2.6-10.49.54-2.06-.38-4.49-.6-6.76-.08-.86-.09-1.73-.07-2.59.09-2.61,2.21-3.86,4.66-2.82,1.47.62,3.08.98,4.46,1.76,1.71.97,2.58,2.66,2.63,4.63.15,6.75.34,13.51.33,20.26-.01,7.17-.21,14.35-.39,21.52-.03,1.35-.41,2.7-.47,4.05-.24,5.31-.22,10.61.78,15.88.21,1.09-.12,3.06-.81,3.39-2.04.99-4.05,3.02-6.74.77-4.07-3.41-5-7.84-4.9-12.76.13-6.76.22-13.52.33-20.27.01-.64,0-1.28,0-2.49Z"/>
    <path class="cls-1" d="M487.47,323.38c-.45,1.73-.67,3.47-1.37,4.98-.46,1-1.47,2.03-2.48,2.45-6.18,2.57-12.55,4.26-19.37,3.65-2.13-.19-4.28-.02-6.42-.12-4.71-.22-8.39-2.64-11.99-5.43-3.42-2.65-5.91-5.94-7.54-9.86-.62-1.48-.92-3.17-1.05-4.78-.41-5.09,1.03-9.78,2.94-14.49,1.83-4.51,4.72-8.27,7.91-11.61,3.44-3.61,7.28-7.19,12.59-8.18.42-.08.87-.1,1.29-.05,4.23.55,8.7,1.27,11.28,4.82,1.58,2.18,4.58,3.77,4.41,7.04-.12,2.38-.59,4.6-1.49,6.96-2.06,5.38-6.54,7.5-10.99,9.92-2.67,1.45-5.29,3.04-8.08,4.21-1.69.71-3.65.98-5.49,1.04-1.77.06-2.27.42-1.68,2.11,1.95,5.66,7.38,9.33,13.47,8.65,5.41-.6,10.77-1.64,16.14-2.52.47-.08.92-.32,1.37-.52,1.35-.6,2.59-1.51,3.86.38.5.75,1.83.94,2.7,1.35ZM451.41,303.86c.24.21.48.42.72.63,3.61-2.06,7.35-3.93,10.79-6.24,1.86-1.25,3.99-2.71,4.21-5.33.07-.82-.36-1.84-.9-2.48-.28-.32-1.54-.27-1.98.08-4.12,3.27-9.14,5.59-11.45,10.79-.39.88-.92,1.7-1.39,2.55Z"/>
    <path class="cls-1" d="M297.08,311.88c1.29-6.61,2.14-13.62,6.14-19.58,1.96-2.92,4.66-5.15,8.11-6.42,2.09-.76,3.89-2.37,6-2.98,4.26-1.24,8.8-1.66,12.85.3,2.45,1.19,4.41,3.56,6.34,5.63,2.75,2.94,4,6.74,4.7,10.57.41,2.21-.15,4.62-.39,6.93-.11,1.13-.42,2.24-.74,3.33-.36,1.2-.86,2.36-1.25,3.55-.43,1.28-.62,2.68-1.25,3.84-1.11,2.05-2.45,3.97-3.75,5.91-.3.45-.8.77-1.23,1.13-.83.69-1.89,1.22-2.47,2.08-2.09,3.08-4.82,5.23-8.15,6.9-4,2.01-8.18,2.22-12.26,1.14-2.15-.57-4.15-2.32-5.82-3.94-1.82-1.78-3.19-4.03-4.73-6.09-.2-.27-.32-.64-.37-.99-.57-3.66-1.12-7.33-1.72-11.28ZM331.96,299.57c-.11-1.12-.08-2.08-.3-2.97-.62-2.5-1.75-4.5-4.53-5.34-2.09-.63-3.7.23-5.15,1.24-2.7,1.88-5.45,3.81-7.72,6.16-1.79,1.84-4,3.67-3.92,6.79.06,2.67-.05,5.35-.31,8.01-.1,1.04-1.24,2.08-1.12,3.02.27,2.2.74,4.47,1.63,6.49.83,1.89,3.52,2.34,5.16,1.12,2.76-2.05,5.64-4.02,8.1-6.41,5.11-4.96,7.44-11.29,8.17-18.1Z"/>
  </g>
</svg>