<?xml version="1.0" encoding="UTF-8"?>
<svg id="Layer_1" data-name="Layer 1" xmlns="http://www.w3.org/2000/svg" version="1.1" viewBox="0 0 500 500">
  <defs>
    <style>
      .cls-1 {
        fill: #019493;
      }

      .cls-1, .cls-2 {
        stroke-width: 0px;
      }

      .cls-2 {
        fill: #b0d9c9;
      }
    </style>
  </defs>
  <circle class="cls-2" cx="250" cy="250" r="239.6"/>
  <g>
    <path class="cls-1" d="M308.39,332c-1.66,4.1-4.51,5.54-7.94,6.11-4.76.79-9.52,1.6-14.29,2.31-2.48.37-3.77,1.66-4.01,4.16-1.21,12.66-2.05,25.32-.68,38.02.31,2.9,1.26,5.78,1.21,8.66-.11,6.21-2.65,8.68-8.68,8.06-2.13-.22-4.38-2.01-6.02-3.64-4.08-4.03-4.22-9.5-4.83-14.8-1.12-9.77-1.59-19.53-.35-29.31.15-1.17.07-2.49.59-3.48,1.78-3.35-.15-3.88-2.7-3.5-3.33.5-6.72,1.05-9.88,2.18-4.71,1.68-16.3-2.1-16.23-7.66.04-3.67.94-5.25,4.89-5.99,7.97-1.5,15.94-2.97,23.89-4.53.96-.19,2.46-.75,2.61-1.4,1.67-7.18,3.12-14.4,4.78-22.37-2.52.51-3.99.76-5.43,1.12-8.41,2.09-16.75,4.55-25.25,6.22-6.24,1.23-12.7,2.12-19.01,1.9-4.78-.17-9.81-1.93-12.82-6.3-1.03-1.49-1.38-3.88-1.06-5.68.16-.91,2.45-1.81,3.89-2.04,1.94-.3,4.04.38,5.98.06,6.83-1.13,13.62-2.48,20.41-3.8,5.21-1.01,10.43-1.95,15.59-3.18,6.42-1.52,12.83-3.15,19.13-5.09,1.44-.44,2.73-2.19,3.56-3.64,1.86-3.24,5.79-4.89,9.12-3.06,2.75,1.52,5.33,3.43,7.7,5.5.76.67,1.04,2.49.79,3.61-1.57,7-3.42,13.95-5.06,20.94-.91,3.89-1.7,7.81-2.32,11.75-.35,2.17.72,3.11,3.1,3.08,3.78-.05,7.59.12,11.33.61,2.34.31,4.59,1.4,7.17,2.23,0,.02.35-.78.13-1.36-2.23-5.86-2.41-12.04-.85-17.83,1.44-5.34,4.77-10.16,9.36-13.58,5.78-4.31,11.78-8.34,17.77-12.35.88-.59,2.29-.38,3.44-.56,2.8-.44,5.67-.62,8.38-1.4,4.45-1.28,17.04,3.01,19.56,6.87.77,1.18,1.9,2.13,2.64,3.32.88,1.42,1.41,3.07,2.3,4.49,1.01,1.6,1.93,3.73,3.45,4.43,4.92,2.25,6.26,5.14,4.53,10.34-1.84,5.52-6.69,8.29-10.43,12.05-7.05,7.09-14.32,13.96-21.37,21.06-1.47,1.48-1.83,3.03.42,5.02,6.4,5.66,12.79,11.43,18.4,17.85,3.7,4.24,6.54,9.46,8.8,14.66,1.48,3.4.16,7.35-2.8,10-4.17,3.72-8.62,6.85-14.8,5.99-4.33-.6-8.88-.11-13.07-1.14-6.36-1.57-12.09-4.94-16.14-10.17-8.49-10.96-11.41-23.06-5.99-36.39,1.41-3.45-1.26-5.28-2.87-7.44-2.29-3.08-4.8-6-7.3-8.91-.62-.72-1.59-1.15-2.73-1.96ZM353.92,297.12c-3.46.74-6.52.63-8.63,1.99-5.68,3.65-11.12,7.74-16.37,12-6.65,5.39-7.3,13.5-1.77,19.9.66.77,2.59,1.08,3.63.73,1.21-.41,2.11-1.78,3.11-2.77,7.52-7.43,14.83-15.09,22.67-22.16,2.35-2.12,2.33-4.24,1.58-6.14-.62-1.57-2.88-2.5-4.22-3.55ZM338.29,360.76c-.49.1-.98.19-1.47.29-.51,1.84-1.26,3.66-1.49,5.54-.49,3.92.42,7.51,2.55,10.98,1.29,2.1,6.44,6.41,8.97,6.44,4.07.06,7.1-1.82,9.86-4.87-6.24-6.24-12.33-12.31-18.41-18.38Z"/>
    <g>
      <path class="cls-1" d="M144.88,266.42c-4.28-.34-11.12,0-17.47-1.58-12.23-3.06-24.05-7.52-31.85-18.41-2.09-2.92-3.5-6.31-5.26-9.47-.68-1.21-1.5-2.33-2.19-3.53-3.37-5.87-3.11-12.34-2.52-18.66.53-5.71,1.92-11.37,3.22-16.98.3-1.29,1.79-2.32,2.78-3.43,1.74-1.94,3.5-3.85,5.28-5.75.73-.78,1.53-1.5,2.29-2.24.49.84,1.31,1.65,1.4,2.54.46,4.4,1.26,8.85.94,13.22-.45,6.08-2.15,12.07-2.65,18.15-.86,10.33,5.35,17.22,12.65,23.13,10.02,8.11,21.98,10.89,34.47,10,5.8-.41,11.88-.47,17.57-3.3,5.63-2.79,11.99-4.07,17.87-6.4,2.06-.82,3.8-2.65,5.43-4.27,4.79-4.78,10.34-9.13,13.94-14.71,4.02-6.25,6.3-13.94,3.77-21.41-1.68-4.96-5.83-8.88-10.72-11.18-6.82-3.21-13.71-6.32-21.54-6.52-3.36-.09-6.67-1.36-10.04-1.71-4.12-.43-5.02.45-5.43,4.61-1.06,10.92-1.95,21.87-3.13,32.78-.69,6.33-1.7,12.63-2.78,18.91-.83,4.83-3.05,6.73-6.58,6.16-5.89-.94-8.43-3.72-7.82-8.64,1.23-10.02,2.47-20.03,3.74-30.04.8-6.32,1.59-12.65,2.55-18.95.35-2.27-.42-3.14-2.57-3.02-1.17.07-2.35.18-3.51.34-5.32.75-9.55-2.05-10.99-7.2-.59-2.1-.33-3.15,2.21-3.67,4.82-.98,9.52-2.57,14.31-3.72,2.34-.56,3.24-2.03,3.65-4.18.85-4.41,1.87-8.8,2.66-13.22.74-4.15,1.02-8.39,1.97-12.49.69-2.98,1.75-6.04,3.4-8.56.72-1.11,3.4-1.53,5.06-1.31,2.86.37,5.63,4.15,5.41,7.07-.3,3.95-.95,7.88-1.42,11.82-.21,1.76-.55,3.55-.44,5.29.12,1.85,1.45,2.28,2.67.95,4.17-4.52,9.19-8.34,11.58-14.35.56-1.4,2.33-2.31,2.96-3.71,1.84-4.06,3.72-8.16,4.96-12.42,1.41-4.82,2.27-9.82,3.13-14.79.5-2.91-.88-4.79-4-5.09-5.92-.58-11.79-.7-17.41,1.77-5.26,2.31-10.8,4.11-15.77,6.93-6.57,3.73-12.89,7.97-18.96,12.48-7.25,5.39-14,11.47-21.26,16.85-1.55,1.15-4.89,1.57-6.43.66-2.34-1.39-1.72-4.38-.56-6.77,2.02-4.14,4.44-7.85,8.22-10.79,5.7-4.43,10.83-9.58,16.6-13.9,3.89-2.91,8.38-5.05,12.74-7.29,5.48-2.82,10.88-6.08,16.7-7.87,6.56-2.02,13.52-2.92,20.37-3.71,3.82-.44,7.79.3,11.68.6,5.08.39,12.23,6.65,13.2,12.65,1.42,8.79.07,16.95-2.83,25.21-2.87,8.19-6.81,15.81-12.05,22.56-3.82,4.91-8.95,8.78-13.42,13.19-1.12,1.1-1.93,2.52-2.88,3.79,1.34.59,2.63,1.55,4.01,1.71,12.06,1.37,23.27,5.4,33.03,12.35,7.91,5.63,13.02,13.56,12.8,23.94-.01.71-.14,1.46.03,2.13,1.37,5.25-.49,10.02-3.06,14.18-3.68,5.95-7.71,11.85-12.5,16.91-5.79,6.12-12.91,10.46-20.88,13.86-7.66,3.27-15.35,6.04-23.46,7.48-4.75.85-9.69.62-16.91,1Z"/>
      <path class="cls-1" d="M284.56,194.05c-4.2,2.65-7.56,5.15-11.24,7-5.32,2.66-10.74,5.25-16.36,7.12-5.52,1.84-6.18,3.11-5.53,8.85.84,7.43,2.17,15.06-.81,22.37-.86,2.12-2.37,3.98-3.62,5.93-.17.26-.55.44-.87.56-2.14.77-10.06-3.5-11.01-5.54-1.66-3.61-1.91-7.05-1.46-11.11.65-5.83-.08-11.84-.58-17.75-.26-3.11-1.3-6.15-1.94-9.23-.17-.8-.55-1.82-.23-2.43,3.61-6.91,1.28-14.35,1.94-21.51.67-7.31.55-14.69,1.08-22.02.45-6.24,1.21-12.47,2.11-18.66.16-1.08,1.58-2.61,2.65-2.82,6.01-1.21,9.69.45,12.75,5.61.66,1.1.84,2.66.79,3.99-.58,14.55-1.26,29.09-1.89,43.64-.05,1.06-.05,2.15.1,3.2.34,2.41,1.23,3.4,3.78,1.83,5.66-3.5,11.64-6.49,17.14-10.21,4.42-2.99,7.26-7.52,10.25-12,3.62-5.44,2.8-11.58,4.29-17.29.89-3.39-.62-7.4-.99-11.14-.14-1.41-.16-2.84-.11-4.26.14-4.3,3.64-6.36,7.67-4.65,2.43,1.03,5.08,1.61,7.35,2.9,2.81,1.59,4.25,4.39,4.33,7.63.25,11.13.56,22.26.54,33.38-.02,11.82-.35,23.65-.64,35.47-.05,2.23-.67,4.44-.77,6.68-.39,8.76-.37,17.48,1.28,26.17.34,1.8-.2,5.05-1.33,5.59-3.36,1.63-6.68,4.98-11.11,1.27-6.7-5.62-8.23-12.91-8.08-21.03.21-11.14.37-22.27.54-33.41.02-1.05,0-2.11,0-4.1Z"/>
    </g>
  </g>
</svg>