<?xml version="1.0" encoding="UTF-8"?>
<svg id="Layer_1" data-name="Layer 1" xmlns="http://www.w3.org/2000/svg" version="1.1" viewBox="0 0 1473 500">
  <defs>
    <style>
      .cls-1, .cls-2 {
        fill: #37423e;
        stroke-width: 0px;
      }

      .cls-2 {
        opacity: .25;
      }
    </style>
  </defs>
  <g>
    <circle class="cls-2" cx="187.14" cy="250" r="116.98"/>
    <g>
      <g>
        <path class="cls-1" d="M212.4,266.35c-.52,0-1.03-.2-1.43-.59-.79-.79-.79-2.07,0-2.86l37.24-37.24c.74-.74,1.14-1.73,1.14-2.77,0-1.05-.43-2.03-1.18-2.76l-22.13-21.46c-.73-.71-1.69-1.09-2.7-1.09-.02,0-.04,0-.06,0-1.04.02-2,.44-2.72,1.18l-22.7,23.42c-.78.8-2.05.82-2.86.04-.8-.78-.82-2.06-.04-2.86l22.7-23.42c1.47-1.52,3.45-2.37,5.56-2.41,2.12-.02,4.12.76,5.64,2.23l22.13,21.46c1.54,1.49,2.39,3.49,2.41,5.62.02,2.14-.81,4.15-2.32,5.66l-37.24,37.24c-.39.39-.91.59-1.43.59Z"/>
        <path class="cls-1" d="M163.88,312.44s-.09,0-.13,0c-2.16-.04-4.17-.92-5.65-2.5l-19.87-21.19c-2.89-3.09-2.86-7.89.09-10.93l13.04-13.46c.78-.8,2.06-.82,2.86-.04s.82,2.06.04,2.86l-13.04,13.46c-1.44,1.49-1.46,3.84-.04,5.35l19.87,21.19c.73.77,1.71,1.21,2.77,1.23,1.05.02,2.06-.39,2.8-1.14l23.48-23.48c.79-.79,2.07-.79,2.86,0,.79.79.79,2.07,0,2.86l-23.48,23.48c-1.5,1.5-3.48,2.32-5.6,2.32Z"/>
        <path class="cls-1" d="M247.54,217.78c-.98,0-1.84-.71-1.99-1.71-.52-3.33.11-6.24,1.87-8.63,2.86-3.88,7.79-5.02,8.98-5.25,7.82-3.14,10.91-7.35,9.19-12.5-1.59-4.75-6.25-7.9-11.35-7.66-7.18.35-8.43,7.6-8.48,7.91,0,.04-.01.08-.02.12-2,9.2-10.15,11.96-14.18,12.13-1.11.06-2.06-.82-2.1-1.93-.05-1.11.81-2.05,1.93-2.1.37-.02,8.54-.55,10.4-8.9.6-3.76,3.9-10.86,12.27-11.26,6.89-.35,13.22,3.95,15.38,10.41,3.33,9.97-5.91,15.32-11.72,17.61-.14.06-.29.1-.44.12-.91.14-8.91,1.62-7.71,9.31.17,1.1-.58,2.13-1.69,2.31-.1.02-.21.02-.31.02Z"/>
        <path class="cls-1" d="M132.95,326.58s-.09,0-.14,0c-6.9-.06-12.97-4.7-14.76-11.27-2.75-10.15,6.78-14.95,12.71-16.91.15-.05.3-.08.45-.09.92-.09,8.98-1.11,8.23-8.85-.11-1.11.71-2.1,1.82-2.21,1.11-.11,2.1.71,2.21,1.82.33,3.36-.47,6.22-2.36,8.51-3.08,3.71-8.06,4.57-9.27,4.73-7.98,2.69-11.31,6.71-9.89,11.96,1.31,4.83,5.79,8.24,10.89,8.29.03,0,.07,0,.1,0,7.11,0,8.75-7.11,8.82-7.41,0-.04.02-.08.03-.12,2.49-8.96,10.61-11.3,14.7-11.3.05,0,.1,0,.15,0,1.12.02,2.01.93,1.99,2.05-.02,1.11-.92,1.99-2.02,1.99h-.04c-.51,0-8.57.13-10.88,8.29-.81,3.7-4.48,10.54-12.75,10.54Z"/>
      </g>
      <g>
        <g>
          <path class="cls-1" d="M241.22,328.82c-.26,0-.52-.01-.79-.03-5.47-.44-9.51-5.42-9.68-5.63l-39.58-48.12,2.06-1.19c4.21-2.44,9.95-8.34,10.01-8.4l1.41-1.46,45.68,44.77c2.36,2.6,3.41,5.42,3.13,8.36-.48,4.9-4.63,8.31-5.31,8.85-2.12,1.9-4.45,2.86-6.93,2.86ZM197.24,276.05l36.66,44.56c.05.06,3.16,3.86,6.88,4.15,1.66.13,3.21-.48,4.73-1.85l.15-.13s3.46-2.65,3.79-6.08c.17-1.76-.51-3.46-2.06-5.19l-42.68-41.83c-1.69,1.64-4.63,4.36-7.46,6.37Z"/>
          <path class="cls-1" d="M193.49,277.46l-24.84-9.98c-1-.4-2.01-.85-3-1.33-23.21-11.24-41.05-24.42-51.57-38.12-3.58-4.65-5.84-10.07-6.55-15.67-2.43-19.27,13.28-31.34,14.24-32.05.45-.35,5.74-4.37,13.64-6.28,7.53-1.82,18.91-2.01,30.41,7.46,3.24,2.67,6.15,5.87,8.65,9.51,5.48,7.98,19.09,29.67,27.06,58.58l5.09,16.67-3.86,1.18-5.11-16.75c-7.81-28.34-21.13-49.58-26.5-57.39-2.29-3.33-4.94-6.26-7.89-8.68-8.15-6.71-17.14-8.96-26.74-6.68-7.28,1.73-12.22,5.55-12.27,5.59l-.05.03c-.15.11-14.82,11.25-12.66,28.32.62,4.89,2.6,9.63,5.74,13.71,10.15,13.2,27.48,25.97,50.13,36.94.9.44,1.83.85,2.74,1.21l24.84,9.98-1.51,3.75Z"/>
          <path class="cls-1" d="M199.5,273.72c-.56,0-1.11-.23-1.51-.68l-78.23-88.32c-.45-.5-.61-1.19-.44-1.84s.65-1.17,1.28-1.4c9.91-3.52,20.52-.92,31.56,7.72,8.54,6.69,17.37,17.05,26.27,30.79,15.04,23.24,25.24,48.57,25.34,48.83.41,1.04-.09,2.21-1.13,2.63-.37.15-.75.18-1.11.11.04.6-.19,1.22-.68,1.65-.38.34-.86.51-1.34.51ZM124.92,184.46l74.22,83.78c-2.74-6.49-11.79-27.02-24.14-46.09-12.7-19.62-31.43-41.5-50.08-37.69Z"/>
          <path class="cls-1" d="M196.99,275.75c-.27,0-.55-.06-.82-.17-.23-.1-23.29-10.4-44.12-26.72-12.32-9.65-21.49-19.5-27.25-29.28-7.35-12.47-9.18-24.84-5.46-36.79.33-1.07,1.46-1.66,2.53-1.33,1.07.33,1.66,1.46,1.33,2.53-3.37,10.81-1.66,22.08,5.06,33.51,5.5,9.34,14.32,18.81,26.23,28.14,20.44,16.02,43.09,26.15,43.32,26.25,1.02.45,1.48,1.65,1.03,2.67-.33.75-1.07,1.2-1.85,1.2Z"/>
        </g>
        <path class="cls-1" d="M240.9,321.73c-.09,0-.18,0-.27,0-1.42-.07-2.72-.69-3.68-1.74-.95-1.05-1.44-2.41-1.37-3.83s.69-2.72,1.74-3.68c1.05-.95,2.41-1.44,3.83-1.37,1.42.07,2.72.69,3.68,1.74.95,1.05,1.44,2.41,1.37,3.83h0c-.07,1.42-.69,2.73-1.74,3.68-.99.89-2.24,1.38-3.57,1.38ZM240.89,315.14c-.32,0-.62.12-.86.33-.25.23-.4.54-.42.88-.02.34.1.67.33.92.23.25.54.4.88.42.34.01.67-.1.92-.33.25-.23.4-.54.42-.88.03-.7-.51-1.3-1.21-1.34-.02,0-.04,0-.06,0ZM244.19,316.58h0,0Z"/>
      </g>
    </g>
  </g>
  <g>
    <path class="cls-1" d="M1326.43,243.25c-1.8,4.43-4.88,5.99-8.59,6.61-5.15.86-10.3,1.73-15.47,2.5-2.68.4-4.08,1.8-4.34,4.5-1.31,13.7-2.22,27.4-.73,41.14.34,3.14,1.37,6.26,1.31,9.38-.12,6.72-2.86,9.39-9.39,8.72-2.3-.24-4.74-2.17-6.52-3.94-4.41-4.36-4.57-10.28-5.23-16.02-1.21-10.57-1.72-21.13-.38-31.72.16-1.27.07-2.7.64-3.77,1.92-3.63-.16-4.2-2.92-3.79-3.61.54-7.28,1.14-10.69,2.36-5.1,1.82-17.63-2.27-17.56-8.29.05-3.97,1.02-5.68,5.3-6.49,8.62-1.63,17.25-3.21,25.85-4.9,1.03-.2,2.66-.81,2.82-1.51,1.8-7.77,3.37-15.59,5.18-24.21-2.72.55-4.32.82-5.88,1.21-9.1,2.27-18.13,4.92-27.32,6.73-6.75,1.33-13.74,2.3-20.57,2.05-5.17-.19-10.61-2.09-13.87-6.82-1.11-1.61-1.49-4.2-1.15-6.15.17-.98,2.65-1.96,4.21-2.2,2.1-.33,4.38.41,6.47.07,7.39-1.22,14.74-2.69,22.09-4.11,5.63-1.09,11.29-2.12,16.87-3.44,6.95-1.65,13.88-3.41,20.7-5.51,1.56-.48,2.96-2.37,3.85-3.94,2.01-3.51,6.27-5.3,9.87-3.31,2.97,1.65,5.77,3.71,8.33,5.95.82.72,1.13,2.69.85,3.91-1.7,7.58-3.7,15.09-5.47,22.66-.98,4.21-1.84,8.45-2.52,12.71-.37,2.35.78,3.37,3.36,3.34,4.09-.05,8.21.12,12.26.66,2.54.34,4.96,1.51,7.76,2.41,0,.02.38-.85.14-1.47-2.42-6.35-2.6-13.03-.92-19.3,1.56-5.78,5.16-10.99,10.12-14.7,6.25-4.67,12.74-9.03,19.23-13.37.95-.64,2.47-.41,3.73-.61,3.03-.48,6.14-.67,9.06-1.52,4.81-1.38,18.44,3.26,21.17,7.44.83,1.28,2.05,2.3,2.85,3.6.95,1.54,1.52,3.32,2.49,4.86,1.09,1.73,2.09,4.04,3.73,4.79,5.32,2.44,6.77,5.56,4.9,11.19-1.99,5.97-7.24,8.97-11.29,13.04-7.63,7.68-15.5,15.11-23.12,22.79-1.59,1.6-1.98,3.28.46,5.43,6.93,6.12,13.85,12.37,19.91,19.32,4.01,4.59,7.08,10.23,9.52,15.86,1.6,3.67.18,7.95-3.03,10.82-4.51,4.03-9.33,7.41-16.02,6.48-4.69-.65-9.61-.11-14.15-1.24-6.88-1.7-13.08-5.34-17.47-11-9.19-11.86-12.35-24.95-6.48-39.38,1.52-3.74-1.37-5.71-3.11-8.05-2.48-3.33-5.19-6.49-7.9-9.64-.67-.78-1.72-1.25-2.96-2.12ZM1375.69,205.5c-3.74.8-7.05.68-9.34,2.15-6.15,3.95-12.03,8.37-17.71,12.98-7.19,5.84-7.9,14.61-1.92,21.54.72.83,2.8,1.17,3.93.79,1.31-.45,2.28-1.93,3.36-3,8.14-8.04,16.05-16.33,24.53-23.98,2.55-2.3,2.52-4.59,1.71-6.64-.67-1.7-3.12-2.7-4.56-3.85ZM1358.78,274.37c-.53.11-1.06.21-1.6.32-.56,2-1.36,3.96-1.62,5.99-.53,4.25.45,8.13,2.76,11.88,1.4,2.27,6.97,6.93,9.7,6.97,4.4.06,7.69-1.97,10.67-5.27-6.76-6.75-13.34-13.32-19.92-19.89Z"/>
    <path class="cls-1" d="M417.94,337.95c-4.63-.37-12.03,0-18.91-1.71-13.23-3.31-26.02-8.14-34.46-19.93-2.26-3.15-3.79-6.83-5.69-10.24-.73-1.31-1.63-2.52-2.37-3.82-3.65-6.35-3.36-13.36-2.73-20.19.58-6.18,2.07-12.3,3.49-18.37.33-1.4,1.94-2.51,3.01-3.71,1.88-2.1,3.79-4.17,5.71-6.23.79-.84,1.65-1.62,2.48-2.43.53.91,1.42,1.79,1.52,2.75.5,4.76,1.36,9.58,1.01,14.3-.48,6.58-2.32,13.06-2.87,19.64-.93,11.18,5.79,18.64,13.69,25.03,10.84,8.77,23.79,11.79,37.3,10.83,6.28-.45,12.85-.51,19.02-3.57,6.09-3.02,12.97-4.4,19.34-6.92,2.23-.88,4.11-2.86,5.88-4.62,5.19-5.18,11.19-9.88,15.08-15.92,4.35-6.76,6.82-15.08,4.08-23.17-1.82-5.37-6.31-9.61-11.6-12.09-7.38-3.47-14.83-6.84-23.31-7.06-3.63-.09-7.22-1.47-10.86-1.85-4.46-.46-5.44.49-5.87,4.99-1.14,11.82-2.1,23.66-3.39,35.47-.74,6.85-1.84,13.67-3.01,20.46-.9,5.22-3.3,7.28-7.12,6.66-6.37-1.02-9.12-4.03-8.47-9.35,1.33-10.84,2.67-21.68,4.05-32.51.87-6.84,1.72-13.69,2.76-20.51.37-2.45-.45-3.4-2.78-3.27-1.27.07-2.54.19-3.8.37-5.76.81-10.33-2.22-11.89-7.8-.63-2.27-.36-3.41,2.39-3.97,5.22-1.06,10.3-2.78,15.49-4.03,2.54-.61,3.5-2.2,3.95-4.52.92-4.78,2.03-9.52,2.88-14.31.8-4.49,1.11-9.08,2.13-13.52.74-3.23,1.9-6.53,3.68-9.27.78-1.2,3.68-1.65,5.48-1.42,3.1.4,6.09,4.49,5.85,7.65-.33,4.28-1.03,8.53-1.53,12.8-.23,1.91-.6,3.84-.47,5.73.13,2,1.57,2.46,2.88,1.03,4.51-4.89,9.95-9.02,12.53-15.53.6-1.52,2.52-2.5,3.21-4.01,1.99-4.39,4.02-8.83,5.37-13.44,1.52-5.22,2.46-10.63,3.38-16.01.54-3.15-.95-5.18-4.33-5.51-6.41-.63-12.76-.76-18.84,1.92-5.69,2.5-11.69,4.45-17.06,7.5-7.11,4.04-13.95,8.63-20.51,13.51-7.85,5.84-15.15,12.41-23,18.24-1.68,1.24-5.3,1.7-6.95.71-2.54-1.51-1.87-4.74-.61-7.32,2.18-4.48,4.81-8.5,8.89-11.67,6.16-4.79,11.72-10.37,17.97-15.04,4.21-3.15,9.07-5.47,13.78-7.89,5.93-3.05,11.77-6.58,18.08-8.52,7.1-2.18,14.63-3.16,22.05-4.01,4.14-.47,8.43.33,12.65.65,5.5.42,13.23,7.19,14.29,13.69,1.54,9.51.08,18.35-3.06,27.28-3.11,8.86-7.36,17.11-13.04,24.41-4.13,5.31-9.69,9.5-14.52,14.28-1.21,1.19-2.09,2.72-3.12,4.1,1.44.64,2.84,1.68,4.34,1.85,13.05,1.48,25.18,5.84,35.75,13.37,8.56,6.09,14.09,14.68,13.85,25.91-.02.77-.15,1.58.03,2.31,1.48,5.68-.53,10.85-3.31,15.35-3.98,6.44-8.34,12.83-13.53,18.3-6.27,6.62-13.97,11.32-22.6,15-8.29,3.54-16.61,6.53-25.39,8.1-5.14.91-10.49.67-18.3,1.08Z"/>
    <path class="cls-1" d="M637.82,247.17c1.35-.63,2.65-.9,3.47-1.68,6.73-6.41,13.19-13.1,20.09-19.31,4.09-3.67,8.36-7.44,14.59-7.27,2.71.07,5.58,0,6.46,2.89.93,3.04,1.32,6.88-1.66,8.93-8.03,5.52-13.86,13.24-20.86,19.76-6.58,6.13-13.66,11.74-20.52,17.58-1.34,1.14-2.83,2.17-3.99,3.47-2.37,2.68-1.11,6.58,2.38,8.06,7.59,3.2,15.18,6.39,22.71,9.72,3.33,1.47,6.31,1.71,9.34-.72,4.24-3.39,6.18-3.24,10.18,1.03.09-1.72.16-2.85.21-3.98.33-7.79-.5-15.85,1.26-23.3,2.36-10.03,4.43-20.41,10.57-29.22,3.59-5.15,6.51-10.79,10.32-15.75,1.71-2.22,4.68-4.1,7.42-4.79,10.3-2.6,20.18-1.35,28.15,6.24,3.47,3.3,7.14,6.98,7.22,12.53.03,1.77.42,3.58.9,5.3,1.88,6.7-3.13,17.82-9.07,22.28-5.81,4.37-12.77,5.35-18.65,8.93-5.02,3.06-10.58,3.34-16.17,3.88-1.12.11-2.93,1.5-3.03,2.45-1.11,10.55-.22,20.59,8.93,27.86,5.01,3.98,10.96,5.38,17.17,5.12,4.44-.19,8.89-1.01,13.26-1.9,2.81-.58,5.58-1.61,8.22-2.77,3.88-1.7,7.65-1.14,8.68,1.83.36,1.04.17,2.79-.51,3.59-2.49,2.91-2.61,2.81-.88,6.99-2.71,1.08-5.34,2.46-8.14,3.18-6.24,1.61-12.52,3.16-18.87,4.19-2.63.43-5.48-.84-8.22-.81-8.87.09-16.16-3.94-23.39-8.38-6.22-3.82-9.33-9.82-12.11-16.15-.38-.86-1.09-1.57-2-2.84.45,8.21-6.42,13.11-13.93,11.99-8.97-1.33-16.43-5.89-24.39-9.45-2.28-1.02-4.49-2.21-6.82-3.08-2.23-.83-3.95-.54-4.34,2.46-.8,6.08-1.62,12.17-2.82,18.18-1.07,5.36-5.01,8.24-10.02,8-2.5-.12-8.5-6.96-8.27-10.1.43-5.82,1.35-11.6,2.04-17.41.23-1.91.33-3.84.56-5.75.29-2.41-.03-4.16-2.34-5.9-4.02-3.03-2.3-11.12,2.51-15,1.31-1.06,2.62-2.95,2.73-4.54,1.24-17.9,2.24-35.82,3.3-53.73.02-.26-.07-.54.01-.77.77-2.11-2.66-4.95.8-6.44,4.54-1.95,11.71-.18,14.06,2.85,5.35,6.89,3.54,14.8,3.45,22.49-.07,6.23-.01,12.46-.01,19.25ZM722.24,226.29c-4.59,2.01-6.81,6-9.07,10.03-2.53,4.5-5.49,8.77-7.8,13.37-.8,1.6-.21,3.91-.25,5.9,1.9-.41,3.86-.66,5.7-1.26,4.84-1.6,8.93-4.41,12.98-7.52,3.48-2.67,5.43-6.01,5.92-9.94.67-5.4-1.56-8.02-7.48-10.56Z"/>
    <path class="cls-1" d="M1037.9,296.11c3.43-.54,6.54-.95,9.61-1.54,2.5-.48,2.77-2.66,1.54-5.41-2.26-5.05-4.39-10.26-2.79-16,.29-1.03,1.06-2.54,1.8-2.66.85-.13,1.85,1.12,2.87,1.62.86.42,2.1.35,2.69.96,1.54,1.61,3.32,3.27,4.08,5.26,2.22,5.81,6.75,9.27,11.55,12.61,3.95,2.75,7.7.32,11.24-.8.81-.26,1.19-4.5.5-6.45-3.62-10.19-9.73-19.14-14.71-28.67-4.99-9.55-8.56-19.72-3.29-30.69,1.57-3.26,3.82-4.97,7.19-6.16,9.08-3.2,17.33.76,25.71,2.81,1.64.4,2.89,3.76,3.63,5.99.53,1.58-.09,3.54-.22,5.69-4.24.03-8.42.43-12.51-.02-3.42-.37-6.83.49-8.02,2.94-1.06,2.2-.38,5.96.82,8.4,4.24,8.6,9.27,16.81,13.56,25.38,3.28,6.55,6.16,13.34,8.69,20.22,1.89,5.12-1.86,12.97-7.12,16.47-4.19,2.79-8.66,3.94-13.72,3.08-2.61-.44-5.33-.19-7.99-.35-5.43-.32-9.75-3.03-13.76-6.45-1.53-1.31-2.67-1.04-3.4,1.08-1.04,3-6.78,6.35-10.07,6.15-.73-.05-1.98-.13-2.14.2-1.76,3.68-5.01,3.14-7.99,2.76-4.05-.51-7.45-2.49-10-5.72-2.92-3.69-6.1-7.25-8.47-11.28-1.53-2.61-1.81-5.96-2.93-9.97-2.86,5.03-4.96,9.33-7.62,13.24-2.17,3.19-4.64,6.4-7.65,8.73-5.04,3.91-9.83,8.17-16.56,9.69-6.13,1.38-11.37.28-16.33-2.89-7.57-4.84-12.3-12.15-15.1-20.39-2.98-8.79-2.79-18.05-1.88-27.24,1.46-14.73,5.59-28.85,9.97-42.89.29-.92,1.33-2.22,2.11-2.28,4.32-.33,8.97-.81,11.89,3.31,2.23,3.14,3.24,6.76,1.97,10.77-.89,2.8-1.52,5.69-2.04,8.58-2.19,12.35-5.27,24.72-4.28,37.28.4,5.11.44,10.96,4.13,15.58,1.27,1.59,1.78,2.05,3.87.83,8.84-5.2,15.85-11.66,19.57-21.66,2.39-6.42,6.53-12.16,9.31-18.47,3.72-8.44,6.99-17.1,10.24-25.74.94-2.49,1.18-5.25,1.67-7.91,1.3-6.97,6.81-8.89,12.33-4.28.68.57,1.22,1.57,1.98,1.74,4.92,1.15,4.9,4.7,4.59,8.64-1.19,14.95-2.71,29.89-3.24,44.86-.26,7.24,1.72,14.47,4.71,21.02Z"/>
    <path class="cls-1" d="M530.73,256c-5.7.94-6.73-4.21-9.09-7.2-1.17-1.48-.86-4.88-.08-6.99,2.56-6.95,7.35-12.31,13.2-16.82,6.84-5.27,14.49-9.09,22.64-11.55,9.81-2.96,19.89-3.13,28.94,2.38,2.38,1.45,3.88,5.28,4.59,8.31.86,3.62,1.39,7.14,3.9,10.11,3.45,4.08,3.43,9.17,3.82,14.14.96,12.11,2.01,24.2,2.98,36.31.58,7.23,1.03,14.46,1.59,21.69.28,3.57-2.14,4.91-4.83,6.08-2.37,1.03-4.18.63-6.64-.77-5.31-3.02-6.59-7.63-7.22-13-.36-3.1-1.19-6.14-1.96-9.99-1.16,1.12-2.18,1.69-2.58,2.56-3.75,8.21-9.12,15.08-16.19,20.73-6.51,5.2-13.64,9.48-21.94,9.78-5.99.21-12.28-1.05-18.02-2.92-6.33-2.07-11.51-6.7-14.62-12.61-6.44-12.25-4.81-23.64,7.73-32.64,2.27-1.63,5.16-2.8,7.92-3.26,11.52-1.95,22.62-5.27,31.76-12.58,5.83-4.66,10.64-10.75,13.8-17.78,1.4-3.13,2.65-6.33,3.77-9.57,1.33-3.86-.59-6.13-4.51-5.24-3.6.82-7.23,1.75-10.63,3.16-13,5.36-22.81,14.12-28.18,27.38-.09.23-.23.45-.16.32ZM570.74,271.13c-4.49-1.7-6.02,1.85-8.58,2.72-8.9,3.05-17.86,5.98-26.93,8.46-4.46,1.22-8.3,3.36-10.46,7.07-1.6,2.75-4.83,5.76-2.47,9.75,4.69,7.93,15.5,9.96,22.94,4.55,8.11-5.89,15.38-12.53,20.27-21.39,1.96-3.56,3.47-7.37,5.24-11.17Z"/>
    <path class="cls-1" d="M827.32,259.64c-4.55,2.87-8.18,5.58-12.17,7.57-5.75,2.88-11.62,5.68-17.71,7.7-5.98,1.99-6.69,3.37-5.98,9.58.91,8.04,2.35,16.3-.88,24.21-.93,2.29-2.56,4.3-3.92,6.41-.18.29-.6.48-.94.6-2.32.83-10.89-3.79-11.91-6-1.8-3.9-2.07-7.63-1.58-12.02.7-6.31-.09-12.82-.63-19.21-.28-3.36-1.4-6.65-2.1-9.98-.18-.87-.59-1.97-.25-2.63,3.9-7.48,1.39-15.53,2.1-23.28.72-7.91.6-15.9,1.17-23.83.49-6.75,1.31-13.49,2.29-20.19.17-1.17,1.71-2.83,2.86-3.06,6.51-1.31,10.48.49,13.8,6.07.71,1.19.91,2.88.85,4.31-.63,15.74-1.36,31.48-2.05,47.22-.05,1.15-.06,2.32.1,3.46.37,2.61,1.33,3.68,4.09,1.98,6.12-3.78,12.6-7.02,18.55-11.04,4.79-3.24,7.85-8.13,11.09-12.99,3.92-5.88,3.03-12.53,4.64-18.71.96-3.67-.68-8.01-1.07-12.06-.15-1.53-.17-3.08-.12-4.61.15-4.65,3.94-6.88,8.3-5.03,2.63,1.11,5.5,1.74,7.95,3.13,3.04,1.72,4.6,4.75,4.68,8.25.27,12.04.6,24.08.58,36.13-.02,12.79-.38,25.59-.69,38.38-.06,2.41-.73,4.81-.83,7.22-.42,9.48-.4,18.92,1.38,28.32.37,1.94-.22,5.46-1.44,6.05-3.64,1.76-7.23,5.39-12.02,1.37-7.25-6.09-8.91-13.98-8.75-22.75.23-12.05.4-24.1.59-36.16.02-1.14,0-2.28,0-4.43Z"/>
    <path class="cls-1" d="M1200.4,294.3c-.8,3.09-1.19,6.18-2.44,8.88-.83,1.79-2.62,3.62-4.43,4.37-11.03,4.58-22.39,7.6-34.54,6.51-3.79-.34-7.64-.04-11.46-.22-8.39-.4-14.97-4.71-21.38-9.69-6.1-4.73-10.53-10.59-13.46-17.58-1.11-2.65-1.64-5.65-1.87-8.53-.72-9.09,1.84-17.44,5.24-25.84,3.26-8.05,8.42-14.74,14.11-20.71,6.14-6.44,12.98-12.83,22.45-14.58.75-.14,1.55-.18,2.3-.09,7.54.98,15.52,2.27,20.11,8.6,2.82,3.89,8.17,6.72,7.86,12.55-.22,4.24-1.05,8.21-2.66,12.41-3.68,9.6-11.67,13.38-19.59,17.68-4.77,2.59-9.44,5.42-14.42,7.52-3.01,1.27-6.5,1.74-9.8,1.85-3.16.1-4.04.74-3,3.77,3.48,10.1,13.16,16.64,24.02,15.43,9.64-1.08,19.2-2.93,28.79-4.49.84-.14,1.64-.57,2.44-.92,2.41-1.07,4.62-2.7,6.88.68.89,1.33,3.26,1.68,4.82,2.41ZM1136.08,259.48c.43.37.86.74,1.29,1.12,6.44-3.67,13.1-7,19.24-11.13,3.32-2.23,7.12-4.84,7.51-9.51.12-1.46-.63-3.28-1.6-4.41-.5-.58-2.74-.48-3.53.15-7.34,5.83-16.31,9.98-20.43,19.25-.7,1.57-1.64,3.03-2.48,4.55Z"/>
    <path class="cls-1" d="M860.86,273.79c2.31-11.79,3.82-24.3,10.96-34.92,3.49-5.2,8.3-9.19,14.47-11.45,3.72-1.36,6.94-4.22,10.71-5.31,7.6-2.2,15.7-2.96,22.92.53,4.37,2.11,7.86,6.35,11.3,10.04,4.9,5.25,7.13,12.02,8.38,18.85.72,3.95-.27,8.23-.69,12.35-.2,2.01-.74,4-1.32,5.94-.64,2.14-1.53,4.2-2.24,6.32-.76,2.28-1.11,4.77-2.23,6.84-1.98,3.65-4.38,7.08-6.69,10.53-.54.8-1.43,1.37-2.2,2.01-1.48,1.23-3.36,2.18-4.4,3.7-3.73,5.49-8.6,9.33-14.53,12.3-7.14,3.58-14.6,3.95-21.87,2.03-3.84-1.01-7.41-4.13-10.38-7.03-3.25-3.18-5.69-7.19-8.44-10.87-.36-.48-.57-1.15-.66-1.76-1.02-6.53-2-13.07-3.07-20.12ZM923.06,251.84c-.19-1.99-.14-3.7-.54-5.3-1.11-4.47-3.12-8.03-8.09-9.53-3.74-1.13-6.59.4-9.19,2.21-4.82,3.35-9.71,6.8-13.77,10.98-3.19,3.29-7.13,6.55-7,12.1.11,4.76-.09,9.55-.55,14.29-.18,1.86-2.21,3.71-2,5.39.48,3.93,1.32,7.97,2.91,11.57,1.48,3.36,6.28,4.18,9.21,2,4.93-3.66,10.06-7.17,14.45-11.42,9.11-8.85,13.27-20.13,14.57-32.29Z"/>
  </g>
</svg>