<?xml version="1.0" encoding="UTF-8"?>
<svg id="Layer_1" data-name="Layer 1" xmlns="http://www.w3.org/2000/svg" version="1.1" viewBox="0 0 500 500">
  <defs>
    <style>
      .cls-1 {
        fill: #019493;
      }

      .cls-1, .cls-2 {
        stroke-width: 0px;
      }

      .cls-2 {
        fill: #b0d9c9;
      }
    </style>
  </defs>
  <circle class="cls-2" cx="250" cy="142.49" r="86.83"/>
  <g>
    <g>
      <path class="cls-1" d="M268.75,154.63c-.38,0-.77-.15-1.06-.44-.59-.59-.59-1.53,0-2.12l27.64-27.64c.55-.55.85-1.28.84-2.06,0-.78-.32-1.5-.87-2.04l-16.43-15.93c-.54-.52-1.25-.81-2-.81-.02,0-.03,0-.05,0-.77.01-1.49.32-2.02.88l-16.85,17.39c-.58.59-1.53.61-2.12.03-.59-.58-.61-1.53-.03-2.12l16.85-17.39c1.09-1.13,2.56-1.76,4.13-1.79,1.57-.02,3.06.56,4.18,1.66l16.43,15.93c1.14,1.11,1.77,2.59,1.79,4.17s-.6,3.08-1.72,4.2l-27.64,27.64c-.29.29-.68.44-1.06.44Z"/>
      <path class="cls-1" d="M232.73,188.83s-.06,0-.1,0c-1.61-.03-3.09-.69-4.19-1.86l-14.75-15.73c-2.15-2.29-2.12-5.85.07-8.11l9.68-9.99c.58-.59,1.53-.61,2.12-.03s.61,1.53.03,2.12l-9.68,9.99c-1.07,1.11-1.09,2.85-.03,3.97l14.75,15.73c.54.57,1.27.9,2.05.91.78.01,1.53-.29,2.08-.84l17.43-17.42c.59-.59,1.54-.59,2.12,0,.59.59.59,1.53,0,2.12l-17.43,17.42c-1.11,1.11-2.58,1.72-4.15,1.72Z"/>
      <path class="cls-1" d="M294.83,118.57c-.73,0-1.37-.53-1.48-1.27-.38-2.48.08-4.63,1.39-6.41,2.12-2.88,5.78-3.73,6.67-3.9,5.8-2.33,8.1-5.45,6.82-9.28-1.18-3.53-4.64-5.86-8.42-5.68-5.33.26-6.26,5.64-6.29,5.87,0,.03-.01.06-.02.09-1.48,6.83-7.53,8.88-10.52,9.01-.83.04-1.53-.61-1.56-1.43-.04-.83.6-1.52,1.43-1.56.28-.01,6.34-.41,7.72-6.6.44-2.79,2.9-8.06,9.1-8.36,5.11-.26,9.81,2.93,11.41,7.73,2.47,7.4-4.39,11.37-8.7,13.07-.11.04-.22.07-.33.09-.67.11-6.61,1.2-5.73,6.91.13.82-.43,1.58-1.25,1.71-.08.01-.16.02-.23.02Z"/>
      <path class="cls-1" d="M209.78,199.33s-.07,0-.1,0c-5.12-.05-9.63-3.49-10.95-8.37-2.04-7.53,5.03-11.1,9.43-12.56.11-.04.22-.06.33-.07.68-.07,6.67-.82,6.11-6.57-.08-.82.52-1.56,1.35-1.64.82-.08,1.56.52,1.64,1.35.24,2.49-.35,4.62-1.75,6.32-2.28,2.76-5.99,3.39-6.88,3.51-5.93,2-8.4,4.98-7.34,8.87.97,3.59,4.3,6.12,8.09,6.15.02,0,.05,0,.07,0,5.28,0,6.5-5.28,6.55-5.5,0-.03.01-.06.02-.09,1.85-6.65,7.88-8.39,10.91-8.39.04,0,.08,0,.11,0,.83.01,1.49.69,1.48,1.52-.01.82-.68,1.48-1.5,1.48h-.03c-.38,0-6.36.1-8.07,6.15-.6,2.75-3.32,7.83-9.47,7.83Z"/>
    </g>
    <g>
      <g>
        <path class="cls-1" d="M290.14,200.99c-.19,0-.39,0-.58-.02-4.06-.33-7.06-4.02-7.18-4.18l-29.38-35.72,1.53-.89c3.12-1.81,7.39-6.19,7.43-6.24l1.05-1.08,33.91,33.23c1.75,1.93,2.53,4.02,2.32,6.2-.36,3.64-3.43,6.17-3.94,6.57-1.57,1.41-3.3,2.12-5.15,2.12ZM257.5,161.82l27.21,33.08s2.34,2.86,5.1,3.08c1.23.1,2.39-.35,3.51-1.38l.11-.09s2.57-1.96,2.81-4.51c.12-1.31-.38-2.57-1.53-3.85l-31.68-31.04c-1.26,1.22-3.44,3.24-5.54,4.72Z"/>
        <path class="cls-1" d="M254.72,162.87l-18.44-7.4c-.75-.3-1.49-.63-2.23-.99-17.23-8.34-30.47-18.13-38.28-28.29-2.65-3.45-4.33-7.47-4.86-11.63-1.81-14.3,9.86-23.26,10.57-23.79.34-.26,4.26-3.24,10.13-4.66,5.59-1.35,14.04-1.49,22.57,5.53,2.4,1.98,4.56,4.36,6.42,7.06,4.07,5.93,14.17,22.02,20.09,43.48l3.78,12.37-2.87.88-3.8-12.43c-5.79-21.03-15.69-36.8-19.67-42.6-1.7-2.47-3.67-4.64-5.86-6.45-6.05-4.98-12.73-6.65-19.85-4.96-5.4,1.28-9.07,4.12-9.11,4.15l-.03.03c-.11.08-11,8.35-9.4,21.02.46,3.63,1.93,7.15,4.26,10.18,7.53,9.8,20.4,19.28,37.21,27.42.67.32,1.36.63,2.04.9l18.44,7.4-1.12,2.78Z"/>
        <path class="cls-1" d="M259.17,160.09c-.41,0-.83-.17-1.12-.51l-58.07-65.55c-.33-.37-.45-.89-.33-1.37s.48-.87.95-1.04c7.35-2.62,15.23-.69,23.42,5.73,6.34,4.97,12.9,12.66,19.5,22.86,11.16,17.25,18.73,36.05,18.81,36.24.31.77-.07,1.64-.84,1.95-.27.11-.56.13-.83.08.03.45-.14.9-.5,1.22-.29.25-.64.38-.99.38ZM203.82,93.84l55.09,62.19c-2.04-4.82-8.75-20.05-17.92-34.21-9.43-14.56-23.33-30.8-37.17-27.98Z"/>
        <path class="cls-1" d="M257.31,161.6c-.2,0-.41-.04-.61-.13-.17-.08-17.29-7.72-32.75-19.83-9.14-7.16-15.95-14.47-20.23-21.73-5.45-9.25-6.82-18.44-4.05-27.31.25-.79,1.09-1.23,1.88-.99.79.25,1.23,1.09.99,1.88-2.5,8.02-1.24,16.39,3.76,24.87,4.08,6.93,10.63,13.96,19.47,20.88,15.17,11.89,31.99,19.41,32.16,19.48.76.34,1.1,1.22.76,1.98-.25.56-.8.89-1.37.89Z"/>
      </g>
      <path class="cls-1" d="M289.91,195.73c-.07,0-.13,0-.2,0-1.05-.05-2.02-.51-2.73-1.29-.71-.78-1.07-1.79-1.02-2.84s.51-2.02,1.29-2.73c.78-.71,1.79-1.07,2.84-1.02,1.05.05,2.02.51,2.73,1.29.71.78,1.07,1.79,1.02,2.84h0c-.05,1.05-.51,2.02-1.29,2.73-.73.66-1.67,1.02-2.65,1.02ZM289.9,190.84c-.24,0-.46.09-.64.25-.19.17-.3.4-.31.66-.01.25.07.5.24.68.17.19.4.3.66.31.25,0,.5-.07.68-.24.19-.17.3-.4.31-.66.03-.52-.38-.97-.9-.99-.02,0-.03,0-.05,0ZM292.34,191.9h0,0Z"/>
    </g>
  </g>
  <g>
    <path class="cls-1" d="M247.37,403.4c-1.01,2.49-2.74,3.36-4.82,3.71-2.89.48-5.78.97-8.68,1.4-1.51.22-2.29,1.01-2.43,2.52-.73,7.69-1.24,15.38-.41,23.09.19,1.76.77,3.51.74,5.26-.07,3.77-1.61,5.27-5.27,4.89-1.29-.13-2.66-1.22-3.66-2.21-2.48-2.45-2.56-5.77-2.93-8.99-.68-5.93-.96-11.86-.21-17.8.09-.71.04-1.51.36-2.11,1.08-2.04-.09-2.36-1.64-2.13-2.02.3-4.08.64-6,1.32-2.86,1.02-9.9-1.28-9.86-4.65.03-2.23.57-3.19,2.97-3.64,4.84-.91,9.68-1.8,14.51-2.75.58-.11,1.49-.46,1.58-.85,1.01-4.36,1.89-8.75,2.91-13.59-1.53.31-2.42.46-3.3.68-5.11,1.27-10.18,2.76-15.33,3.78-3.79.75-7.71,1.29-11.55,1.15-2.9-.1-5.96-1.17-7.78-3.83-.62-.91-.84-2.35-.65-3.45.1-.55,1.49-1.1,2.36-1.24,1.18-.18,2.46.23,3.63.04,4.15-.69,8.27-1.51,12.4-2.31,3.16-.61,6.34-1.19,9.47-1.93,3.9-.92,7.79-1.91,11.62-3.09.88-.27,1.66-1.33,2.16-2.21,1.13-1.97,3.52-2.97,5.54-1.86,1.67.92,3.24,2.08,4.67,3.34.46.4.63,1.51.48,2.19-.96,4.25-2.08,8.47-3.07,12.72-.55,2.36-1.03,4.74-1.41,7.14-.21,1.32.44,1.89,1.89,1.87,2.29-.03,4.61.07,6.88.37,1.42.19,2.78.85,4.35,1.35,0,.01.21-.48.08-.83-1.36-3.56-1.46-7.31-.52-10.83.87-3.25,2.9-6.17,5.68-8.25,3.51-2.62,7.15-5.07,10.79-7.5.53-.36,1.39-.23,2.09-.34,1.7-.27,3.45-.38,5.09-.85,2.7-.78,10.35,1.83,11.88,4.17.47.72,1.15,1.29,1.6,2.02.54.87.85,1.87,1.4,2.73.61.97,1.17,2.27,2.09,2.69,2.99,1.37,3.8,3.12,2.75,6.28-1.11,3.35-4.06,5.03-6.33,7.32-4.28,4.31-8.7,8.48-12.98,12.79-.89.9-1.11,1.84.26,3.05,3.89,3.44,7.77,6.94,11.17,10.84,2.25,2.58,3.97,5.74,5.34,8.9.9,2.06.1,4.46-1.7,6.07-2.53,2.26-5.23,4.16-8.99,3.64-2.63-.37-5.39-.06-7.94-.69-3.86-.95-7.34-3-9.8-6.18-5.16-6.66-6.93-14-3.64-22.1.85-2.1-.77-3.21-1.74-4.52-1.39-1.87-2.91-3.64-4.44-5.41-.38-.44-.96-.7-1.66-1.19ZM275.02,382.22c-2.1.45-3.96.38-5.24,1.21-3.45,2.22-6.75,4.7-9.94,7.29-4.04,3.28-4.44,8.2-1.07,12.09.4.47,1.57.66,2.2.44.73-.25,1.28-1.08,1.89-1.68,4.57-4.51,9.01-9.16,13.77-13.46,1.43-1.29,1.41-2.58.96-3.73-.37-.95-1.75-1.52-2.56-2.16ZM265.53,420.87c-.3.06-.6.12-.9.18-.31,1.12-.77,2.22-.91,3.36-.3,2.38.25,4.56,1.55,6.67.78,1.27,3.91,3.89,5.44,3.91,2.47.04,4.31-1.11,5.99-2.96-3.79-3.79-7.49-7.48-11.18-11.16Z"/>
    <path class="cls-1" d="M48.55,348.1c-2.6-.21-6.75,0-10.61-.96-7.43-1.86-14.6-4.57-19.34-11.18-1.27-1.77-2.13-3.83-3.2-5.75-.41-.73-.91-1.42-1.33-2.14-2.05-3.56-1.89-7.5-1.53-11.33.32-3.47,1.16-6.9,1.96-10.31.18-.78,1.09-1.41,1.69-2.08,1.05-1.18,2.13-2.34,3.2-3.49.44-.47.93-.91,1.39-1.36.3.51.8,1,.85,1.54.28,2.67.76,5.38.57,8.03-.27,3.69-1.3,7.33-1.61,11.02-.52,6.27,3.25,10.46,7.69,14.05,6.09,4.92,13.35,6.61,20.93,6.08,3.52-.25,7.21-.29,10.67-2.01,3.42-1.7,7.28-2.47,10.86-3.89,1.25-.5,2.31-1.61,3.3-2.59,2.91-2.91,6.28-5.54,8.47-8.93,2.44-3.79,3.83-8.46,2.29-13-1.02-3.01-3.54-5.39-6.51-6.79-4.14-1.95-8.33-3.84-13.08-3.96-2.04-.05-4.05-.82-6.1-1.04-2.5-.26-3.05.27-3.3,2.8-.64,6.63-1.18,13.28-1.9,19.91-.42,3.84-1.03,7.67-1.69,11.48-.5,2.93-1.85,4.08-4,3.74-3.58-.57-5.12-2.26-4.75-5.25.75-6.08,1.5-12.17,2.27-18.25.49-3.84.97-7.68,1.55-11.51.21-1.38-.25-1.91-1.56-1.83-.71.04-1.42.11-2.13.21-3.23.45-5.8-1.25-6.67-4.38-.36-1.27-.2-1.92,1.34-2.23,2.93-.59,5.78-1.56,8.69-2.26,1.42-.34,1.97-1.23,2.22-2.54.52-2.68,1.14-5.34,1.62-8.03.45-2.52.62-5.1,1.19-7.59.42-1.81,1.06-3.67,2.07-5.2.44-.67,2.06-.93,3.08-.8,1.74.22,3.42,2.52,3.28,4.29-.18,2.4-.58,4.79-.86,7.18-.13,1.07-.34,2.15-.27,3.21.07,1.12.88,1.38,1.62.58,2.53-2.75,5.58-5.06,7.03-8.72.34-.85,1.42-1.4,1.8-2.25,1.12-2.47,2.26-4.95,3.01-7.54.86-2.93,1.38-5.97,1.9-8.98.3-1.77-.54-2.91-2.43-3.09-3.6-.35-7.16-.43-10.57,1.08-3.19,1.41-6.56,2.5-9.58,4.21-3.99,2.27-7.83,4.84-11.51,7.58-4.41,3.28-8.5,6.96-12.91,10.24-.94.7-2.97.95-3.9.4-1.42-.84-1.05-2.66-.34-4.11,1.22-2.51,2.7-4.77,4.99-6.55,3.46-2.69,6.58-5.82,10.08-8.44,2.36-1.77,5.09-3.07,7.73-4.43,3.33-1.71,6.61-3.69,10.14-4.78,3.98-1.23,8.21-1.77,12.37-2.25,2.32-.27,4.73.18,7.1.37,3.09.24,7.43,4.04,8.02,7.68.86,5.34.04,10.3-1.72,15.31-1.74,4.97-4.13,9.6-7.32,13.7-2.32,2.98-5.44,5.33-8.15,8.01-.68.67-1.17,1.53-1.75,2.3.81.36,1.6.94,2.44,1.04,7.32.83,14.13,3.28,20.06,7.5,4.8,3.42,7.91,8.24,7.77,14.54,0,.43-.09.89.02,1.29.83,3.19-.3,6.09-1.86,8.61-2.24,3.61-4.68,7.2-7.59,10.27-3.52,3.71-7.84,6.35-12.68,8.42-4.65,1.98-9.32,3.67-14.25,4.54-2.88.51-5.88.38-10.27.61Z"/>
    <path class="cls-1" d="M171.95,297.16c.76-.36,1.49-.51,1.95-.94,3.78-3.6,7.4-7.35,11.28-10.84,2.29-2.06,4.69-4.17,8.19-4.08,1.52.04,3.13,0,3.63,1.62.52,1.71.74,3.86-.93,5.01-4.51,3.1-7.78,7.43-11.71,11.09-3.7,3.44-7.67,6.59-11.51,9.87-.75.64-1.59,1.22-2.24,1.95-1.33,1.5-.62,3.7,1.34,4.52,4.26,1.79,8.52,3.59,12.75,5.45,1.87.83,3.54.96,5.24-.4,2.38-1.9,3.47-1.82,5.71.58.05-.97.09-1.6.12-2.23.18-4.37-.28-8.89.71-13.07,1.33-5.63,2.49-11.45,5.93-16.4,2.01-2.89,3.65-6.06,5.79-8.84.96-1.25,2.63-2.3,4.16-2.69,5.78-1.46,11.32-.76,15.8,3.5,1.95,1.85,4.01,3.91,4.05,7.03.01,1,.24,2.01.51,2.98,1.06,3.76-1.76,10-5.09,12.51-3.26,2.45-7.17,3-10.47,5.01-2.82,1.72-5.94,1.88-9.07,2.18-.63.06-1.64.84-1.7,1.37-.62,5.92-.12,11.56,5.01,15.64,2.81,2.23,6.15,3.02,9.64,2.87,2.49-.11,4.99-.57,7.44-1.07,1.58-.32,3.13-.9,4.61-1.55,2.18-.95,4.29-.64,4.87,1.03.2.58.1,1.57-.29,2.01-1.4,1.63-1.47,1.58-.49,3.92-1.52.61-3,1.38-4.57,1.79-3.5.9-7.02,1.77-10.59,2.35-1.47.24-3.07-.47-4.61-.45-4.98.05-9.07-2.21-13.13-4.7-3.49-2.14-5.24-5.51-6.8-9.06-.21-.48-.61-.88-1.12-1.6.25,4.61-3.6,7.36-7.82,6.73-5.03-.75-9.22-3.3-13.69-5.3-1.28-.57-2.52-1.24-3.83-1.73-1.25-.46-2.22-.3-2.44,1.38-.45,3.41-.91,6.83-1.58,10.2-.6,3.01-2.81,4.63-5.62,4.49-1.4-.07-4.77-3.9-4.64-5.67.24-3.27.76-6.51,1.14-9.77.13-1.07.18-2.16.31-3.23.16-1.35-.02-2.33-1.31-3.31-2.25-1.7-1.29-6.24,1.41-8.42.74-.59,1.47-1.65,1.53-2.55.69-10.05,1.26-20.1,1.85-30.15,0-.14-.04-.3,0-.43.43-1.18-1.49-2.78.45-3.61,2.55-1.09,6.57-.1,7.89,1.6,3,3.87,1.99,8.31,1.94,12.62-.04,3.5,0,6.99,0,10.8ZM219.32,285.44c-2.57,1.13-3.82,3.37-5.09,5.63-1.42,2.52-3.08,4.92-4.38,7.5-.45.9-.12,2.2-.14,3.31,1.07-.23,2.17-.37,3.2-.71,2.71-.9,5.01-2.48,7.29-4.22,1.95-1.5,3.05-3.37,3.32-5.58.38-3.03-.87-4.5-4.2-5.93Z"/>
    <path class="cls-1" d="M396.47,324.62c1.92-.3,3.67-.54,5.4-.86,1.4-.27,1.55-1.49.86-3.04-1.27-2.83-2.46-5.76-1.57-8.98.16-.58.6-1.43,1.01-1.49.47-.07,1.04.63,1.61.91.48.24,1.18.19,1.51.54.86.9,1.87,1.83,2.29,2.95,1.24,3.26,3.79,5.2,6.48,7.08,2.22,1.54,4.32.18,6.31-.45.46-.14.67-2.52.28-3.62-2.03-5.72-5.46-10.74-8.25-16.09-2.8-5.36-4.81-11.07-1.85-17.22.88-1.83,2.15-2.79,4.04-3.45,5.09-1.79,9.72.42,14.43,1.58.92.23,1.62,2.11,2.04,3.36.3.89-.05,1.99-.12,3.2-2.38.02-4.73.24-7.02-.01-1.92-.21-3.83.27-4.5,1.65-.6,1.23-.21,3.35.46,4.71,2.38,4.82,5.2,9.43,7.61,14.25,1.84,3.68,3.45,7.49,4.88,11.35,1.06,2.88-1.05,7.28-4,9.24-2.35,1.57-4.86,2.21-7.7,1.73-1.46-.25-2.99-.1-4.49-.19-3.05-.18-5.47-1.7-7.72-3.62-.86-.73-1.5-.58-1.91.6-.58,1.68-3.81,3.57-5.65,3.45-.41-.03-1.11-.07-1.2.11-.99,2.07-2.81,1.76-4.48,1.55-2.27-.28-4.18-1.4-5.61-3.21-1.64-2.07-3.43-4.07-4.75-6.33-.86-1.47-1.02-3.35-1.64-5.6-1.6,2.82-2.78,5.23-4.28,7.43-1.22,1.79-2.6,3.59-4.29,4.9-2.83,2.19-5.52,4.59-9.3,5.44-3.44.78-6.38.16-9.16-1.62-4.25-2.72-6.9-6.82-8.47-11.45-1.67-4.93-1.57-10.13-1.05-15.29.82-8.27,3.13-16.19,5.6-24.07.16-.52.75-1.25,1.18-1.28,2.42-.18,5.03-.45,6.67,1.86,1.25,1.76,1.82,3.8,1.11,6.05-.5,1.57-.85,3.19-1.14,4.82-1.23,6.93-2.96,13.87-2.4,20.92.23,2.87.25,6.15,2.32,8.74.71.89,1,1.15,2.17.46,4.96-2.92,8.89-6.55,10.98-12.16,1.34-3.6,3.66-6.83,5.22-10.36,2.09-4.74,3.92-9.6,5.74-14.45.53-1.4.66-2.95.94-4.44.73-3.91,3.82-4.99,6.92-2.4.38.32.69.88,1.11.98,2.76.65,2.75,2.64,2.58,4.85-.67,8.39-1.52,16.77-1.82,25.18-.14,4.06.97,8.12,2.65,11.8Z"/>
    <path class="cls-1" d="M111.85,302.11c-3.2.53-3.78-2.36-5.1-4.04-.65-.83-.48-2.74-.04-3.92,1.44-3.9,4.12-6.91,7.41-9.44,3.84-2.96,8.13-5.1,12.71-6.48,5.51-1.66,11.16-1.76,16.24,1.33,1.34.81,2.18,2.97,2.58,4.66.48,2.03.78,4.01,2.19,5.67,1.94,2.29,1.92,5.15,2.15,7.94.54,6.79,1.13,13.58,1.67,20.38.32,4.06.58,8.12.89,12.17.16,2.01-1.2,2.76-2.71,3.41-1.33.58-2.35.35-3.73-.43-2.98-1.7-3.7-4.28-4.05-7.3-.2-1.74-.67-3.45-1.1-5.61-.65.63-1.22.95-1.45,1.43-2.1,4.61-5.12,8.46-9.08,11.63-3.65,2.92-7.65,5.32-12.32,5.49-3.36.12-6.89-.59-10.11-1.64-3.56-1.16-6.46-3.76-8.2-7.08-3.61-6.88-2.7-13.26,4.34-18.32,1.27-.91,2.9-1.57,4.45-1.83,6.46-1.09,12.69-2.96,17.82-7.06,3.27-2.62,5.97-6.03,7.74-9.98.79-1.75,1.49-3.55,2.11-5.37.74-2.16-.33-3.44-2.53-2.94-2.02.46-4.06.98-5.96,1.77-7.3,3.01-12.8,7.92-15.81,15.37-.05.13-.13.25-.09.18ZM134.31,310.6c-2.52-.95-3.38,1.04-4.81,1.53-5,1.71-10.02,3.36-15.11,4.75-2.51.68-4.66,1.89-5.87,3.97-.9,1.54-2.71,3.23-1.39,5.47,2.63,4.45,8.7,5.59,12.87,2.56,4.55-3.3,8.63-7.03,11.37-12,1.1-2,1.95-4.14,2.94-6.27Z"/>
    <path class="cls-1" d="M278.3,304.15c-2.55,1.61-4.59,3.13-6.83,4.25-3.23,1.62-6.52,3.19-9.94,4.32-3.35,1.11-3.75,1.89-3.36,5.38.51,4.51,1.32,9.15-.49,13.59-.52,1.29-1.44,2.41-2.2,3.6-.1.16-.33.27-.53.34-1.3.47-6.11-2.13-6.69-3.37-1.01-2.19-1.16-4.28-.89-6.75.39-3.54-.05-7.19-.35-10.78-.16-1.89-.79-3.73-1.18-5.6-.1-.49-.33-1.11-.14-1.47,2.19-4.2.78-8.72,1.18-13.06.41-4.44.33-8.92.65-13.37.27-3.79.73-7.57,1.28-11.33.1-.66.96-1.59,1.61-1.72,3.65-.73,5.88.27,7.74,3.41.4.67.51,1.61.48,2.42-.35,8.84-.77,17.67-1.15,26.5-.03.65-.03,1.3.06,1.94.21,1.46.75,2.07,2.3,1.11,3.44-2.12,7.07-3.94,10.41-6.2,2.69-1.82,4.41-4.57,6.22-7.29,2.2-3.3,1.7-7.03,2.6-10.5.54-2.06-.38-4.5-.6-6.77-.08-.86-.09-1.73-.07-2.59.09-2.61,2.21-3.86,4.66-2.82,1.47.63,3.09.98,4.46,1.76,1.71.97,2.58,2.67,2.63,4.63.15,6.76.34,13.52.33,20.27-.01,7.18-.21,14.36-.39,21.54-.03,1.35-.41,2.7-.47,4.05-.24,5.32-.22,10.62.78,15.89.21,1.09-.12,3.07-.81,3.4-2.04.99-4.06,3.03-6.75.77-4.07-3.41-5-7.84-4.91-12.77.13-6.76.22-13.53.33-20.29.01-.64,0-1.28,0-2.49Z"/>
    <path class="cls-1" d="M487.67,323.61c-.45,1.73-.67,3.47-1.37,4.98-.46,1-1.47,2.03-2.49,2.45-6.19,2.57-12.57,4.27-19.38,3.66-2.13-.19-4.29-.02-6.43-.12-4.71-.22-8.4-2.65-12-5.44-3.42-2.65-5.91-5.94-7.55-9.86-.62-1.49-.92-3.17-1.05-4.79-.41-5.1,1.03-9.79,2.94-14.5,1.83-4.52,4.73-8.27,7.92-11.62,3.45-3.61,7.28-7.2,12.6-8.18.42-.08.87-.1,1.29-.05,4.23.55,8.71,1.27,11.29,4.82,1.58,2.18,4.58,3.77,4.41,7.04-.12,2.38-.59,4.61-1.49,6.97-2.06,5.39-6.55,7.51-11,9.92-2.67,1.45-5.3,3.04-8.09,4.22-1.69.71-3.65.98-5.5,1.04-1.77.06-2.27.42-1.68,2.12,1.95,5.67,7.38,9.34,13.48,8.66,5.41-.6,10.78-1.65,16.16-2.52.47-.08.92-.32,1.37-.52,1.35-.6,2.59-1.51,3.86.38.5.75,1.83.94,2.71,1.35ZM451.57,304.07c.24.21.48.42.72.63,3.61-2.06,7.35-3.93,10.8-6.25,1.86-1.25,3.99-2.72,4.21-5.34.07-.82-.36-1.84-.9-2.48-.28-.32-1.54-.27-1.98.08-4.12,3.27-9.15,5.6-11.46,10.8-.39.88-.92,1.7-1.39,2.55Z"/>
    <path class="cls-1" d="M297.12,312.09c1.29-6.62,2.14-13.63,6.15-19.6,1.96-2.92,4.66-5.16,8.12-6.42,2.09-.77,3.9-2.37,6.01-2.98,4.26-1.24,8.81-1.66,12.86.3,2.45,1.19,4.41,3.56,6.34,5.64,2.75,2.95,4,6.75,4.7,10.58.41,2.21-.15,4.62-.39,6.93-.11,1.13-.42,2.24-.74,3.34-.36,1.2-.86,2.36-1.26,3.55-.43,1.28-.62,2.68-1.25,3.84-1.11,2.05-2.46,3.97-3.76,5.91-.3.45-.8.77-1.23,1.13-.83.69-1.89,1.22-2.47,2.08-2.09,3.08-4.83,5.24-8.15,6.91-4.01,2.01-8.19,2.22-12.27,1.14-2.15-.57-4.16-2.32-5.83-3.95-1.83-1.78-3.19-4.03-4.74-6.1-.2-.27-.32-.64-.37-.99-.57-3.67-1.12-7.34-1.73-11.29ZM332.03,299.78c-.11-1.12-.08-2.08-.3-2.98-.62-2.51-1.75-4.51-4.54-5.35-2.1-.63-3.7.23-5.16,1.24-2.71,1.88-5.45,3.82-7.73,6.16-1.79,1.84-4,3.67-3.93,6.79.06,2.67-.05,5.36-.31,8.02-.1,1.04-1.24,2.08-1.12,3.03.27,2.21.74,4.47,1.63,6.49.83,1.89,3.52,2.35,5.17,1.12,2.77-2.05,5.65-4.02,8.11-6.41,5.11-4.97,7.45-11.3,8.17-18.12Z"/>
  </g>
</svg>