<?xml version="1.0" encoding="UTF-8"?>
<svg id="Layer_1" data-name="Layer 1" xmlns="http://www.w3.org/2000/svg" version="1.1" viewBox="0 0 500 500">
  <defs>
    <style>
      .cls-1 {
        fill: #019493;
      }

      .cls-1, .cls-2 {
        stroke-width: 0px;
      }

      .cls-2 {
        fill: #b0d9c9;
      }
    </style>
  </defs>
  <circle class="cls-2" cx="250" cy="250" r="206.53"/>
  <g>
    <g>
      <path class="cls-1" d="M294.6,278.87c-.91,0-1.83-.35-2.52-1.04-1.39-1.39-1.39-3.65,0-5.04l65.75-65.75c1.31-1.31,2.02-3.05,2.01-4.89-.01-1.85-.75-3.58-2.08-4.86l-39.07-37.89c-1.29-1.25-2.97-1.93-4.76-1.93-.04,0-.07,0-.11,0-1.83.03-3.54.77-4.81,2.08l-40.07,41.35c-1.37,1.42-3.63,1.45-5.04.08-1.41-1.37-1.45-3.63-.08-5.04l40.07-41.35c2.6-2.68,6.09-4.19,9.82-4.25,3.75-.04,7.27,1.34,9.95,3.94l39.07,37.89c2.71,2.63,4.22,6.16,4.25,9.93.03,3.77-1.43,7.32-4.09,9.99l-65.75,65.75c-.7.7-1.61,1.04-2.52,1.04Z"/>
      <path class="cls-1" d="M208.93,360.23c-.08,0-.15,0-.23,0-3.82-.06-7.36-1.63-9.97-4.42l-35.07-37.41c-5.11-5.45-5.04-13.92.16-19.29l23.02-23.76c1.37-1.41,3.63-1.45,5.04-.08s1.45,3.63.08,5.04l-23.02,23.76c-2.55,2.63-2.58,6.78-.08,9.45l35.07,37.41c1.28,1.36,3.02,2.13,4.89,2.16,1.85.03,3.63-.68,4.95-2l41.45-41.45c1.39-1.39,3.65-1.39,5.04,0,1.39,1.39,1.39,3.65,0,5.04l-41.45,41.45c-2.65,2.65-6.15,4.1-9.88,4.1Z"/>
      <path class="cls-1" d="M356.64,193.11c-1.73,0-3.25-1.26-3.52-3.02-.91-5.89.2-11.01,3.31-15.24,5.05-6.86,13.75-8.87,15.86-9.27,13.8-5.55,19.26-12.97,16.22-22.07-2.8-8.39-11.04-13.94-20.04-13.52-12.68.61-14.88,13.42-14.97,13.97-.01.06-.02.14-.04.21-3.53,16.25-17.92,21.12-25.03,21.42-1.96.11-3.63-1.44-3.72-3.41-.08-1.96,1.44-3.63,3.4-3.72.66-.03,15.09-.96,18.36-15.71,1.05-6.64,6.89-19.18,21.66-19.89,12.16-.61,23.34,6.97,27.15,18.38,5.88,17.6-10.44,27.04-20.69,31.1-.25.1-.52.17-.79.21-1.61.25-15.72,2.86-13.62,16.44.3,1.95-1.03,3.77-2.98,4.07-.19.03-.37.04-.55.04Z"/>
      <path class="cls-1" d="M154.33,385.21c-.08,0-.16,0-.24,0-12.19-.11-22.9-8.3-26.05-19.9-4.86-17.91,11.97-26.4,22.44-29.86.26-.09.53-.14.8-.17,1.62-.16,15.86-1.96,14.54-15.63-.19-1.96,1.25-3.7,3.21-3.89,1.96-.2,3.7,1.25,3.89,3.21.57,5.93-.83,10.98-4.17,15.02-5.43,6.56-14.24,8.07-16.36,8.34-14.1,4.75-19.97,11.85-17.46,21.11,2.32,8.54,10.23,14.56,19.23,14.64.06,0,.12,0,.17,0,12.55,0,15.45-12.55,15.57-13.09.01-.06.03-.14.05-.21,4.4-15.82,18.74-19.96,25.95-19.96.09,0,.18,0,.27,0,1.97.03,3.54,1.65,3.51,3.62-.03,1.95-1.62,3.51-3.57,3.51h-.06c-.91,0-15.13.24-19.2,14.63-1.42,6.53-7.91,18.62-22.51,18.62Z"/>
    </g>
    <g>
      <g>
        <path class="cls-1" d="M345.48,389.15c-.46,0-.92-.02-1.39-.06-9.66-.77-16.79-9.56-17.09-9.94l-69.89-84.97,3.63-2.11c7.42-4.31,17.57-14.73,17.67-14.83l2.5-2.57,80.65,79.04c4.17,4.6,6.03,9.56,5.52,14.76-.85,8.65-8.17,14.68-9.37,15.62-3.74,3.36-7.85,5.05-12.24,5.05ZM267.83,295.99l64.72,78.68c.08.1,5.58,6.81,12.14,7.32,2.94.23,5.68-.84,8.35-3.27l.27-.22c.05-.04,6.11-4.67,6.69-10.74.29-3.11-.9-6.11-3.64-9.16l-75.36-73.84c-2.99,2.9-8.17,7.7-13.17,11.24Z"/>
        <path class="cls-1" d="M261.22,298.48l-43.86-17.61c-1.77-.71-3.55-1.5-5.3-2.34-40.99-19.84-72.47-43.12-91.06-67.3-6.31-8.21-10.31-17.78-11.56-27.67-4.3-34.01,23.45-55.32,25.14-56.59.8-.62,10.14-7.71,24.09-11.09,13.29-3.22,33.39-3.55,53.68,13.16,5.72,4.71,10.86,10.36,15.28,16.8,9.68,14.1,33.7,52.38,47.78,103.43l8.99,29.43-6.82,2.08-9.03-29.57c-13.78-50.03-37.31-87.53-46.79-101.33-4.04-5.89-8.73-11.04-13.93-15.33-14.39-11.85-30.27-15.82-47.21-11.8-12.85,3.05-21.58,9.8-21.66,9.86l-.08.06c-.26.19-26.16,19.87-22.35,50,1.09,8.63,4.6,17,10.14,24.21,17.91,23.31,48.52,45.86,88.51,65.22,1.59.77,3.22,1.49,4.84,2.14l43.86,17.61-2.66,6.62Z"/>
        <path class="cls-1" d="M271.82,291.88c-.99,0-1.97-.41-2.67-1.2l-138.12-155.92c-.79-.89-1.08-2.11-.78-3.25.3-1.15,1.14-2.07,2.26-2.47,17.49-6.22,36.24-1.63,55.71,13.64,15.07,11.81,30.67,30.11,46.37,54.37,26.55,41.03,44.56,85.76,44.74,86.21.73,1.83-.16,3.9-1.99,4.64-.65.26-1.33.31-1.96.2.07,1.06-.33,2.15-1.19,2.91-.68.6-1.52.9-2.36.9ZM140.15,134.28l131.03,147.93c-4.84-11.46-20.82-47.7-42.62-81.38-22.42-34.64-55.49-73.27-88.41-66.55Z"/>
        <path class="cls-1" d="M267.39,295.46c-.48,0-.97-.1-1.44-.31-.41-.18-41.12-18.37-77.9-47.17-21.75-17.03-37.94-34.43-48.12-51.7-12.97-22.01-16.21-43.86-9.63-64.96.59-1.88,2.59-2.93,4.47-2.34,1.88.59,2.93,2.59,2.34,4.47-5.95,19.08-2.94,38.98,8.94,59.17,9.71,16.49,25.28,33.2,46.3,49.68,36.08,28.28,76.09,46.16,76.49,46.34,1.8.8,2.61,2.91,1.82,4.71-.59,1.33-1.89,2.12-3.26,2.12Z"/>
      </g>
      <path class="cls-1" d="M344.92,376.65c-.16,0-.31,0-.47-.01-2.5-.12-4.81-1.21-6.5-3.07-1.68-1.86-2.54-4.26-2.42-6.76.12-2.5,1.21-4.81,3.07-6.5,1.86-1.68,4.26-2.55,6.76-2.42,2.5.12,4.81,1.21,6.5,3.07,1.68,1.86,2.55,4.26,2.42,6.76h0c-.12,2.5-1.21,4.81-3.07,6.5-1.74,1.58-3.96,2.43-6.3,2.43ZM344.91,365.01c-.56,0-1.09.21-1.51.58-.45.4-.71.96-.74,1.56-.03.6.18,1.18.58,1.62.4.45.96.71,1.56.74.6.02,1.18-.18,1.62-.58.45-.4.71-.96.74-1.56.06-1.24-.9-2.3-2.14-2.36-.04,0-.08,0-.11,0ZM350.72,367.54h0,0Z"/>
    </g>
  </g>
</svg>